<?xml version="1.0" encoding="UTF-8"?>
<svg version="1.1" xmlns="http://www.w3.org/2000/svg" width="500" height="427">
<path d="M0 0 C165 0 330 0 500 0 C500 140.91 500 281.82 500 427 C335 427 170 427 0 427 C0 286.09 0 145.18 0 0 Z " fill="#F3C3D1" transform="translate(0,0)"/>
<path d="M0 0 C165 0 330 0 500 0 C500 96.03 500 192.06 500 291 C493.68637082 289.59697129 488.80861159 288.32344464 483 286 C483 284.02 483 282.04 483 280 C482.34 280 481.68 280 481 280 C479.3560009 275.0680027 479.77354138 269.97689083 479.75 264.8125 C479.7190625 263.14477539 479.7190625 263.14477539 479.6875 261.44335938 C479.65669028 254.93865724 480.00795814 249.83727792 483 244 C483.99 243.67 484.98 243.34 486 243 C486.73323796 240.98491642 486.73323796 240.98491642 487 239 C486.34588135 238.885354 485.6917627 238.77070801 485.01782227 238.65258789 C477.95657405 237.39452432 470.9448065 235.96595456 463.9375 234.4375 C462.90689453 234.21642578 461.87628906 233.99535156 460.81445312 233.76757812 C459.83283203 233.55423828 458.85121094 233.34089844 457.83984375 233.12109375 C456.95675537 232.9295874 456.07366699 232.73808105 455.16381836 232.54077148 C453 232 453 232 451 231 C448.41965764 219.19732291 448.77859533 207.00505343 449 195 C448.01 195 447.02 195 446 195 C446.11041823 190.47868775 446.24092187 185.95816761 446.375 181.4375 C446.42140625 179.52227539 446.42140625 179.52227539 446.46875 177.56835938 C446.6609691 171.40132989 446.84925311 165.81401091 449 160 C448.39269043 159.8956665 447.78538086 159.79133301 447.15966797 159.68383789 C425.79985268 155.99093188 404.54008294 151.8176631 383.27383423 147.62481689 C377.56430413 146.50036452 371.85251642 145.38901268 366.13671875 144.296875 C365.47051514 144.16950455 364.80431152 144.04213409 364.11791992 143.91090393 C363.46976318 143.78698776 362.82160645 143.66307159 362.15380859 143.53540039 C346.71722282 140.58232309 331.35169862 137.36500289 316 134 C316.4026709 132.79899658 316.4026709 132.79899658 316.81347656 131.57373047 C319.2295786 124.10089992 320.87823009 116.92331966 321.75 109.125 C321.93212036 107.57026978 321.93212036 107.57026978 322.11791992 105.98413086 C323.86381739 90.19979256 324.64518267 76.36019322 315 63 C311.95788606 59.4108355 309.77821206 58.37241143 305.171875 57.54296875 C303.99665283 57.32133057 302.82143066 57.09969238 301.6105957 56.87133789 C300.33659912 56.64567139 299.06260254 56.42000488 297.75 56.1875 C295.00778438 55.67625931 292.26771193 55.15385206 289.52734375 54.6328125 C288.46854256 54.43387138 288.46854256 54.43387138 287.38835144 54.23091125 C280.65205705 52.95775578 273.96457199 51.49721182 267.27410889 50.0010376 C253.59530743 46.94300255 239.87843541 44.11400322 226.12060547 41.43408203 C219.47589795 40.13454205 212.86002215 38.82747235 206.3293457 37.02197266 C199.93759067 35.46008008 194.67597093 34.80378877 188.1328125 35.6953125 C187.37154556 35.78945938 186.61027863 35.88360626 185.82594299 35.98060608 C183.21550513 36.30766741 180.60792297 36.65348267 178 37 C175.98159085 37.26002 173.96311453 37.51951897 171.94458008 37.77856445 C166.41372876 38.49404612 160.88600878 39.23130235 155.35913086 39.97680664 C151.93982304 40.43718722 148.51975493 40.89159318 145.09960938 41.34570312 C134.23137176 42.80054221 123.41713538 44.37325049 112.6315918 46.3503418 C107.41853197 47.28291001 102.18930221 48.01305803 96.9375 48.6875 C95.98423828 48.81705078 95.03097656 48.94660156 94.04882812 49.08007812 C88.64704236 49.78368771 83.44681164 50.13472679 78 50 C78.16733643 51.27576904 78.33467285 52.55153809 78.50708008 53.8659668 C79.07425967 58.98895379 79.02669435 63.99940661 78.88671875 69.14453125 C78.85462878 71.05661618 78.82407411 72.9687274 78.79492188 74.88085938 C78.74533666 77.86164606 78.68669212 80.84102584 78.60229492 83.82104492 C78.52370572 86.72077266 78.48318796 89.61898285 78.44921875 92.51953125 C78.41511398 93.41122513 78.38100922 94.30291901 78.34587097 95.22163391 C78.33520501 97.63116319 78.37288864 99.67261404 79 102 C81.84944617 104.66270793 81.84944617 104.66270793 85 106 C84.67 106.66 84.34 107.32 84 108 C82.35 108.33 80.7 108.66 79 109 C78.67 115.6 78.34 122.2 78 129 C76.35 129 74.7 129 73 129 C73 131.31 73 133.62 73 136 C73.99 136.33 74.98 136.66 76 137 C68.40905942 140.23244241 60.78196834 143.25792848 53 146 C53 146.66 53 147.32 53 148 C53.73412109 148.16081055 54.46824219 148.32162109 55.22460938 148.48730469 C82.67154628 154.5111941 82.67154628 154.5111941 96 158 C97.23943359 158.32363525 97.23943359 158.32363525 98.50390625 158.65380859 C104.00535198 160.09223245 109.50364045 161.54226986 115 163 C113.72425228 166.33340534 112.26463422 169.4286641 110.5625 172.5625 C103.87453501 185.93842998 103.26234523 199.24381179 107.86035156 213.30810547 C109.69890309 218.56533427 112.02473629 223.30823799 115 228 C115.33 228.66 115.66 229.32 116 230 C109.53836054 228.96415137 103.19203205 227.60886958 96.84765625 226.01953125 C96.13451263 225.84146942 95.42136902 225.66340759 94.68661499 225.47994995 C91.7216646 224.73713096 88.75780085 223.9904269 85.79663086 223.23266602 C83.60730804 222.67411927 81.41532856 222.12725678 79.22265625 221.58203125 C78.22263329 221.32121513 78.22263329 221.32121513 77.20240784 221.05513 C73.84450734 220.22873099 71.25439317 219.62873984 68 221 C66.32724276 222.51834039 66.32724276 222.51834039 64.9375 224.5 C64.45152344 225.1290625 63.96554688 225.758125 63.46484375 226.40625 C59.15388576 234.03951962 58.50287333 241.34871257 58.5625 250 C58.5325293 251.54300781 58.5325293 251.54300781 58.50195312 253.1171875 C58.50585642 259.25317077 59.2902033 263.79627463 62.14038086 269.2578125 C63 271 63 271 63 273 C59.77525412 274.49306416 56.58494414 275.36491888 53.12890625 276.11328125 C52.22462891 276.30986328 51.32035156 276.50644531 50.38867188 276.70898438 C48.51065767 277.11002542 46.63040524 277.5007301 44.74804688 277.88085938 C38.15283512 279.34072475 33.91789982 280.97063512 29.82836914 286.61791992 C28.72346989 288.35700817 27.72635335 290.12343548 26.75 291.9375 C26.24339844 292.82985352 26.24339844 292.82985352 25.7265625 293.74023438 C20.89608845 302.44079294 19.58349364 311.17745839 21 321 C23.56811653 328.85489436 28.23907726 337.41605104 35.70751953 341.46948242 C38.91812078 342.96193825 41.95398888 343.96643896 45.3671875 344.890625 C46.59663086 345.23029297 47.82607422 345.56996094 49.09277344 345.91992188 C50.055401 346.18421997 50.055401 346.18421997 51.03747559 346.45385742 C54.30937422 347.36438019 57.56426942 348.33146102 60.8203125 349.296875 C62.17998865 349.69848746 63.53968958 350.10001604 64.89941406 350.50146484 C65.93346375 350.80706329 65.93346375 350.80706329 66.98840332 351.11883545 C81.91211401 355.52739662 96.8590445 359.84647838 111.828125 364.09863281 C123.38660099 367.3832613 134.93075976 370.71540094 146.46826172 374.07275391 C154.54248714 376.42180185 162.62181965 378.75169986 170.70849609 381.05761719 C175.66566109 382.47689155 180.61409017 383.92555513 185.5625 385.375 C193.05585788 387.56541113 200.55370209 389.73812064 208.0625 391.875 C218.32455177 394.79553695 228.57030407 397.77167174 238.81469727 400.75341797 C244.8153694 402.49894104 250.81842966 404.23312163 256.83203125 405.93359375 C261.38256415 407.22743237 265.90921721 408.58028283 270.42576599 409.98681641 C273.43271038 410.91961651 276.44610664 411.8304444 279.46044922 412.73901367 C280.99689509 413.20774598 282.53044268 413.68607751 284.06103516 414.17358398 C286.32003764 414.89057173 288.58749936 415.57117689 290.859375 416.24609375 C291.52942566 416.46776718 292.19947632 416.68944061 292.88983154 416.91783142 C298.91052623 418.64209771 303.25119585 417.11141187 309 415 C310.9602244 414.33316037 312.92068555 413.66701642 314.88134766 413.00146484 C317.05973211 412.24027797 319.23726087 411.47663911 321.4140625 410.7109375 C322.60029709 410.2955925 323.78653168 409.8802475 325.00871277 409.45231628 C328.21450785 408.32919977 331.41956912 407.2040364 334.62427139 406.07780838 C337.32685986 405.12845332 340.0300596 404.18084525 342.73324299 403.23318577 C360.37776064 397.047024 378.00787337 390.82066343 395.62710571 384.56283569 C416.07383464 377.30223773 436.55892457 370.15220758 457.04891396 363.01481247 C459.68669708 362.09589591 462.3243094 361.17648964 464.96191406 360.257061 C466.76566188 359.62859338 468.56971484 359.00100173 470.3737793 358.3734436 C471.48124512 357.98748016 472.58871094 357.60151672 473.72973633 357.20385742 C474.78005035 356.83787445 475.83036438 356.47189148 476.9125061 356.09481812 C480.88281584 354.68695557 484.82613617 353.20988797 488.76371765 351.71308899 C491 351 491 351 494 351 C494 349.35 494 347.7 494 346 C493.34 346 492.68 346 492 346 C486.82877714 335.69892406 489.5851458 320.99499414 492.77734375 310.46875 C494.63047068 305.2113164 496.6941384 300.07478557 499 295 C499.33 295 499.66 295 500 295 C500 338.56 500 382.12 500 427 C335 427 170 427 0 427 C0 286.09 0 145.18 0 0 Z " fill="#FEFEFE" transform="translate(0,0)"/>
<path d="M0 0 C1.04743881 0.26015396 2.09487762 0.52030792 3.17405701 0.78834534 C5.41419987 1.34560573 7.65344533 1.90648421 9.8918457 2.47070312 C14.61821393 3.66199599 19.34888324 4.83574309 24.07943726 6.01028442 C26.48820179 6.60843647 28.89675049 7.20745835 31.30508423 7.80734253 C42.45557996 10.5820708 53.6272442 13.26290299 64.80859375 15.91015625 C66.44474651 16.29808024 68.08089571 16.68601922 69.71704102 17.07397461 C72.0573843 17.62865909 74.39781773 18.18295079 76.73851013 18.73616028 C80.87584522 19.71405995 85.01193537 20.69690441 89.14648438 21.68652344 C99.18489302 24.08824499 109.23166297 26.42496328 119.30859375 28.66015625 C135.04237697 32.18145157 150.70146571 35.99220003 166.36004639 39.83206177 C173.99795234 41.70429474 181.64208928 43.55032 189.29272461 45.36987305 C194.08658532 46.51042134 198.87234387 47.67371722 203.6484375 48.88671875 C204.59203125 49.12229492 205.535625 49.35787109 206.5078125 49.60058594 C208.2537023 50.03705839 209.99748044 50.48213027 211.73828125 50.93847656 C222.1633323 53.51906186 230.49520683 52.33028943 240.68359375 49.22265625 C242.90426318 48.57187765 245.12562774 47.92346666 247.34765625 47.27734375 C248.44110352 46.95733398 249.53455078 46.63732422 250.66113281 46.30761719 C255.10081665 45.0416943 259.57175583 43.93214834 264.05859375 42.84765625 C270.77496507 41.21056594 277.42207022 39.40779092 284.05859375 37.47265625 C291.60257095 35.27385602 299.17689817 33.28142455 306.80859375 31.41015625 C314.35723203 29.55916071 321.84829603 27.59033458 329.30859375 25.41015625 C337.7666897 22.93838392 346.27610308 20.76548923 354.83422852 18.66894531 C362.53601387 16.76708479 370.16366635 14.66169319 377.77148438 12.4140625 C396.6219831 6.87969061 396.6219831 6.87969061 405.640625 10.54296875 C409.30197638 12.0075093 413.06109836 13.18701539 416.80859375 14.41015625 C416.09210592 20.09783126 414.18311986 24.95057168 412.06835938 30.22460938 C408.82079786 38.54900403 407.48578165 46.22955754 407.62109375 55.16015625 C407.62173828 55.98386719 407.62238281 56.80757813 407.62304688 57.65625 C407.65233611 61.69816377 407.80695203 65.46769442 408.80859375 69.41015625 C409.46859375 69.41015625 410.12859375 69.41015625 410.80859375 69.41015625 C410.80859375 71.06015625 410.80859375 72.71015625 410.80859375 74.41015625 C409.57560547 74.83611084 408.34261719 75.26206543 407.07226562 75.70092773 C383.21282592 83.94685665 359.37253553 92.24221236 335.58532715 100.69442749 C323.95546447 104.82627947 312.31943993 108.93954748 300.66804695 113.01033592 C298.71726955 113.69192351 296.76663988 114.37393261 294.81602478 115.0559845 C288.96173839 117.10229065 283.10631437 119.14512851 277.24619961 121.1746912 C265.61482491 125.20442331 254.01147689 129.25689985 242.55859375 133.7734375 C240.90611823 134.41423685 239.25345685 135.05455715 237.60058594 135.69433594 C234.69876777 136.81864763 231.82684986 137.99329459 228.96191406 139.20800781 C218.71177002 143.32667715 211.87044216 141.82673972 201.80859375 138.41015625 C200.04087306 137.91326946 198.2704348 137.42582657 196.49609375 136.953125 C194.93275317 136.50421919 193.37025146 136.05238187 191.80859375 135.59765625 C190.94105469 135.34757813 190.07351563 135.0975 189.1796875 134.83984375 C181.36524968 132.58332757 173.55874662 130.29915862 165.75195312 128.01635742 C159.27731745 126.12445222 152.79629367 124.25673142 146.30859375 122.41015625 C137.77815822 119.98216318 129.26262592 117.50526911 120.75 115.015625 C114.27593787 113.12423233 107.79562667 111.25654157 101.30859375 109.41015625 C93.79984982 107.27296429 86.3016954 105.10155197 78.80859375 102.91015625 C68.66259958 99.94370487 58.50383672 97.02467038 48.33691406 94.13085938 C45.8762692 93.42944728 43.41649452 92.72507425 40.95703125 92.01953125 C39.30339535 91.54553825 37.64974934 91.07158056 35.99609375 90.59765625 C35.15506104 90.35635986 34.31402832 90.11506348 33.44750977 89.86645508 C28.05502909 88.323988 22.65523711 86.80959187 17.25 85.3125 C3.46521588 81.48740065 -10.24674838 77.563429 -23.83666992 73.08081055 C-28.80820646 71.44942864 -33.74254237 69.97414799 -38.83984375 68.79370117 C-48.51038606 66.54011944 -53.36243988 62.6313744 -58.56640625 54.28515625 C-63.74880206 45.22320157 -64.84864905 35.73378013 -62.5390625 25.52734375 C-59.37972842 17.09341329 -54.13362519 7.10519717 -46.19140625 2.41015625 C-42.36736674 0.95621695 -38.47993013 -0.0180546 -34.50390625 -0.96484375 C-33.47845703 -1.23683594 -32.45300781 -1.50882812 -31.39648438 -1.7890625 C-30.37619141 -2.04042969 -29.35589844 -2.29179687 -28.3046875 -2.55078125 C-27.39501221 -2.77556152 -26.48533691 -3.0003418 -25.5480957 -3.23193359 C-16.83648905 -4.16081681 -8.39695042 -2.14387532 0 0 Z " fill="#B3DBDA" transform="translate(83.19140625,276.58984375)"/>
<path d="M0 0 C1.06596405 0.21292694 2.1319281 0.42585388 3.23019409 0.64523315 C8.62822201 1.860443 14.00426932 3.12886305 19.36743164 4.49047852 C21.20057671 4.94989586 21.20057671 4.94989586 23.070755 5.41859436 C26.39392204 6.2516481 29.71556261 7.09064311 33.03694916 7.93076324 C35.83838873 8.63842828 38.64079179 9.34223346 41.44322205 10.04596329 C56.46846174 13.81907376 71.48503672 17.62625278 86.49829674 21.44672203 C88.75254307 22.02032556 91.00685676 22.59366367 93.26118469 23.16694641 C99.72738464 24.81160494 106.19324845 26.45748944 112.65689564 28.11215591 C126.54671662 31.66611575 140.45103681 35.1039027 154.43392944 38.27519226 C161.08221601 39.79294216 167.68444951 41.43078024 174.26977539 43.20141602 C175.0925296 43.42132202 175.91528381 43.64122803 176.76296997 43.86779785 C180.03223554 44.74364462 183.30032946 45.62254166 186.56225586 46.52539062 C199.40370652 50.29459886 199.40370652 50.29459886 212.55102539 49.39282227 C213.48446777 49.17408447 214.41791016 48.95534668 215.37963867 48.72998047 C218.39048871 47.98081676 221.37618018 47.16802284 224.36352539 46.33032227 C226.36844393 45.77119693 228.37491439 45.21760017 230.38305664 44.67016602 C231.25679932 44.42516357 232.13054199 44.18016113 233.03076172 43.92773438 C235.61200156 43.37988041 237.92057337 43.29635958 240.55102539 43.39282227 C241.21102539 46.03282227 241.87102539 48.67282227 242.55102539 51.39282227 C246.51102539 46.44282227 246.51102539 46.44282227 250.55102539 41.39282227 C255.89215699 43.52927491 258.3617511 45.61426114 262.55102539 49.39282227 C262.88102539 45.43282227 263.21102539 41.47282227 263.55102539 37.39282227 C280.4950944 32.80775548 297.43987503 28.31854139 314.55102539 24.39282227 C317.63157398 23.68443899 320.71208912 22.97591248 323.79248047 22.2668457 C325.96118406 21.76833798 328.13029221 21.2715869 330.29980469 20.77661133 C336.32727465 19.39478816 342.33800253 17.95905462 348.33618164 16.45532227 C349.64604174 16.129495 350.95593737 15.8038105 352.26586914 15.47827148 C354.76939942 14.85334203 357.27084761 14.21999108 359.76977539 13.5769043 C371.79700498 10.58531696 380.84655894 11.59964758 392.79199219 14.32861328 C395.00584261 14.83427768 397.22234519 15.32659141 399.43969727 15.81665039 C410.2056308 18.22012497 410.2056308 18.22012497 412.55102539 19.39282227 C412.22102539 21.04282227 411.89102539 22.69282227 411.55102539 24.39282227 C410.56102539 24.72282227 409.57102539 25.05282227 408.55102539 25.39282227 C405.5569448 32.14437485 406.33098778 39.58918733 406.42602539 46.83032227 C406.43956055 48.78615234 406.43956055 48.78615234 406.45336914 50.78149414 C406.47684142 53.98546058 406.50967812 57.18904491 406.55102539 60.39282227 C407.21102539 60.39282227 407.87102539 60.39282227 408.55102539 60.39282227 C408.55102539 62.04282227 408.55102539 63.69282227 408.55102539 65.39282227 C407.4230957 65.61196289 406.29516602 65.83110352 405.13305664 66.05688477 C395.53141237 67.97287319 386.1430937 70.26913326 376.75244141 73.03759766 C369.97547602 75.02271919 363.15990347 76.77671207 356.30102539 78.45532227 C349.58405753 80.10240093 342.9153933 81.80908139 336.30102539 83.83032227 C328.78431801 86.12563603 321.1816797 88.01531938 313.55102539 89.89282227 C306.00356468 91.74991834 298.48293685 93.61309482 291.05102539 95.89282227 C282.41480645 98.54196918 273.6484322 100.64640573 264.87573242 102.79150391 C256.89682387 104.75726703 249.06105542 106.95932617 241.26196289 109.54516602 C231.97153847 111.66729454 223.9829674 109.81165841 214.89355469 107.37420654 C211.365467 106.42896333 207.82686545 105.52450499 204.28930664 104.61547852 C203.56389679 104.42808105 202.83848694 104.24068359 202.09109497 104.04760742 C194.61280166 102.12697045 187.08906461 100.43555509 179.55102539 98.76782227 C170.51800276 96.76318668 161.51699453 94.67969504 152.55102539 92.39282227 C142.37613899 89.79922377 132.1539048 87.45280582 121.90063477 85.19165039 C112.21290589 83.04058348 102.56958918 80.71963182 92.92538452 78.38166809 C82.17119238 75.77628405 71.40750671 73.21187366 60.64086914 70.65844727 C59.78109781 70.45447767 58.92132648 70.25050808 58.03550148 70.04035759 C50.94709407 68.35876364 43.85839099 66.67841773 36.76959229 64.99847412 C31.42453692 63.73175594 26.07962 62.46445682 20.73489571 61.19634247 C17.50524352 60.43037473 14.27527442 59.66574677 11.04531193 58.90108871 C8.86891496 58.38358475 6.69417877 57.85951103 4.51950073 57.33483887 C1.97902479 56.72395351 -0.55966986 56.15449191 -3.115448 55.6060791 C-4.73351852 55.24673279 -4.73351852 55.24673279 -6.38427734 54.88012695 C-7.30756332 54.68602234 -8.2308493 54.49191772 -9.18211365 54.29193115 C-11.98132762 53.18167419 -12.7494721 52.02013058 -14.13647461 49.39282227 C-14.89819336 47.33032227 -14.89819336 47.33032227 -15.44897461 45.39282227 C-15.94397461 43.90782227 -15.94397461 43.90782227 -16.44897461 42.39282227 C-16.73499104 38.56454162 -16.726796 34.73058811 -16.76147461 30.89282227 C-16.79047852 29.85383789 -16.81948242 28.81485352 -16.84936523 27.74438477 C-16.92488052 18.42695987 -14.8678806 10.27233353 -9.44897461 2.58032227 C-6.18944474 -0.70621825 -4.48074167 -0.91646092 0 0 Z " fill="#BDC65B" transform="translate(74.448974609375,219.607177734375)"/>
<path d="M0 0 C6.15344986 0.75457737 12.11487338 2.08974905 18.1484375 3.5 C19.27003265 3.76063232 20.39162781 4.02126465 21.54721069 4.28979492 C36.80631505 7.85998254 52.01487839 11.63965559 67.22637939 15.40637207 C70.42542605 16.19809521 73.62490208 16.98807467 76.82439709 17.77798367 C91.15645913 21.31637164 105.48622886 24.86394145 119.80859375 28.44140625 C120.75131134 28.67678101 121.69402893 28.91215576 122.66531372 29.15466309 C132.07077784 31.5086685 141.43484857 33.99000317 150.765625 36.625 C152.90621184 37.22930184 155.04683798 37.83346451 157.1875 38.4375 C158.26950684 38.74292725 159.35151367 39.04835449 160.46630859 39.36303711 C166.9739156 41.18803249 173.49509568 42.90472507 180.0625 44.5 C188.59725825 46.5746564 197.01597226 48.98358448 205.42993164 51.50195312 C220.95331568 56.12746699 230.66210747 57.66532511 246.31494141 53.14379883 C252.83152344 51.27454465 259.38986031 49.68978146 266 48.1875 C267.0923999 47.9387915 268.1847998 47.69008301 269.31030273 47.43383789 C271.6428228 46.90329027 273.97542662 46.37311077 276.30810547 45.84326172 C282.89892411 44.33785982 289.48123292 42.7965106 296.0625 41.25 C296.76287384 41.08561432 297.46324768 40.92122864 298.18484497 40.75186157 C311.33339973 37.66255755 324.45109746 34.45112423 337.56759644 31.22888184 C349.63760783 28.26678067 361.72116271 25.41939809 373.87084961 22.80029297 C379.92824404 21.49227421 379.92824404 21.49227421 385.8984375 19.84375 C388.77456382 19.06132773 391.04208372 18.82073235 394 19 C394.02952761 22.29164717 394.04697292 25.58325938 394.0625 28.875 C394.07087891 29.7928125 394.07925781 30.710625 394.08789062 31.65625 C394.10964173 37.8335647 393.73930108 43.86721835 393 50 C393.99 50 394.98 50 396 50 C396.66 61.88 397.32 73.76 398 86 C393.05 86.99 388.1 87.98 383 89 C379.03323746 89.91363498 375.07773076 90.84335238 371.125 91.8125 C368.9453328 92.34122952 366.76564471 92.86987294 364.5859375 93.3984375 C363.49120117 93.66495117 362.39646484 93.93146484 361.26855469 94.20605469 C356.09857527 95.46186385 350.92407195 96.69868431 345.75 97.9375 C336.47814611 100.16242067 327.20726195 102.39137992 317.9375 104.625 C316.71144043 104.92019531 315.48538086 105.21539062 314.22216797 105.51953125 C306.38991526 107.40974471 298.57276418 109.34935939 290.7734375 111.37109375 C288 112 288 112 285 112 C285 116.29 285 120.58 285 125 C281.94877188 123.01315378 279.07115099 121.05821444 276.25 118.75 C274.21195569 116.79535313 274.21195569 116.79535313 272 117 C270.5875304 118.61755209 269.24258458 120.29462632 267.9375 122 C266.64528834 123.68244556 265.33775347 125.35353419 264 127 C263.67 127 263.34 127 263 127 C262.67 124.03 262.34 121.06 262 118 C260.80624756 118.31022095 260.80624756 118.31022095 259.58837891 118.62670898 C256.58921075 119.40231086 253.5884157 120.17118998 250.58642578 120.93579102 C248.6669966 121.42675778 246.7494872 121.92521059 244.83203125 122.42382812 C243.60097656 122.73642578 242.36992187 123.04902344 241.1015625 123.37109375 C239.98088379 123.65911865 238.86020508 123.94714355 237.70556641 124.24389648 C227.90787345 126.24306997 220.71819114 125.6591718 211.03125 123.02734375 C209.14371248 122.53757901 207.25617424 122.04781708 205.36859894 121.55819798 C202.73587289 120.87071181 200.10738196 120.16772388 197.47869873 119.46496582 C191.6896255 117.92176057 185.89043401 116.41663295 180.09375 114.90234375 C178.81984406 114.56789749 177.54593811 114.23345123 176.23342896 113.88887024 C167.07431478 111.49783547 157.88197185 109.31426965 148.65023804 107.22399902 C136.08198658 104.36521053 123.60769861 101.14577558 111.125 97.9375 C107.59382143 97.03282391 104.06242427 96.12901707 100.53070068 95.22647095 C98.24687047 94.64130366 95.96384912 94.05296922 93.68170166 93.46127319 C88.47927111 92.116848 83.27826489 90.81968707 78.03027344 89.66455078 C77.11108124 89.45592911 76.19188904 89.24730743 75.24484253 89.03236389 C73.55728976 88.65283454 71.86558236 88.29109366 70.16946411 87.95188904 C64.51808454 86.66121252 62.27345729 84.79811322 59 80 C51.72194447 67.15750518 48.94353346 53.44347242 52.125 38.9375 C54.21093677 31.43211986 57.68653177 24.47020235 62 18 C60.83597656 17.85304687 60.83597656 17.85304687 59.6484375 17.703125 C58.56820312 17.55359375 57.48796875 17.4040625 56.375 17.25 C54.80878906 17.04117188 54.80878906 17.04117188 53.2109375 16.828125 C49.5693908 16.20567839 46.08617042 15.18796459 42.54296875 14.1484375 C34.74509051 11.87017294 26.87329761 10.09897378 18.9375 8.375 C16.21634471 7.78354149 13.49651964 7.18642244 10.77734375 6.5859375 C9.59390381 6.3286084 8.41046387 6.0712793 7.19116211 5.80615234 C4.31960918 5.08073977 1.71273874 4.17695543 -1 3 C-0.67 2.01 -0.34 1.02 0 0 Z " fill="#FEC770" transform="translate(53,145)"/>
<path d="M0 0 C8.11291667 0.75601049 16.07021902 2.21070051 24.07421875 3.6953125 C25.55094126 3.96691843 27.02771345 4.23825439 28.50453186 4.50933838 C31.62301774 5.08232779 34.74114053 5.65724112 37.85900879 6.23358154 C42.70426187 7.12889838 47.55079279 8.01716618 52.39746094 8.90478516 C65.85907925 11.37247332 79.3179988 13.84839649 92.75390625 16.453125 C95.31733829 16.94514013 97.88090746 17.43643544 100.44448853 17.92767334 C102.67328412 18.36011521 104.89840335 18.80865105 107.1237793 19.25830078 C114.71467363 20.74822616 121.35379679 21.27979893 129 20 C130.23556641 19.80067871 131.47113281 19.60135742 132.74414062 19.39599609 C136.46908821 18.77809822 140.1854496 18.11692336 143.90118408 17.44607544 C148.26028703 16.66004736 152.62258314 15.89203419 156.984375 15.12109375 C157.92282257 14.95483994 158.86127014 14.78858612 159.82815552 14.61729431 C171.22978747 12.59979294 182.63914232 10.62760262 194.05206299 8.67504883 C196.42735847 8.26782517 198.8023213 7.85865621 201.17694092 7.44750977 C204.52602159 6.86782162 207.87613193 6.29448347 211.2265625 5.72265625 C212.22802307 5.54799332 213.22948364 5.37333038 214.2612915 5.19337463 C223.49863954 3.63059978 223.49863954 3.63059978 228 4 C235.09687856 9.96137799 237.46649154 21.70687673 238.34765625 30.44921875 C238.71241583 44.35766002 235.58301568 58.28620193 230 71 C227.83703808 73.16296192 226.89333582 73.48153887 224.01693726 74.25880432 C223.1843338 74.48729065 222.35173035 74.71577698 221.49389648 74.95118713 C220.12092407 75.31674965 220.12092407 75.31674965 218.72021484 75.68969727 C217.27601669 76.08274551 217.27601669 76.08274551 215.80264282 76.48373413 C212.60720282 77.35141401 209.40918502 78.20913757 206.2109375 79.06640625 C203.99081775 79.66606016 201.77081806 80.26615871 199.55093384 80.86668396 C194.88976915 82.1259984 190.22734629 83.38051197 185.56396484 84.6315918 C179.59655207 86.23282761 173.63212121 87.84485558 167.66856956 89.4604044 C163.07992118 90.70237227 158.48985776 91.93904113 153.89934158 93.17408562 C151.70058119 93.76622567 149.5022298 94.35988667 147.30430222 94.95511055 C144.22298148 95.78860734 141.13985532 96.61506429 138.05615234 97.43969727 C137.15298279 97.68542984 136.24981323 97.93116241 135.3192749 98.18434143 C127.31188613 100.31141828 120.84082024 101.63021453 112.63867188 99.34716797 C111.2285767 98.9667364 109.81833324 98.58685413 108.40795898 98.2074585 C107.68289154 98.0073391 106.9578241 97.8072197 106.21078491 97.60103607 C102.56237408 96.60915916 98.89100691 95.71193672 95.22070312 94.80517578 C93.68221632 94.42104754 92.14384782 94.03644517 90.60559082 93.65139771 C89.42779808 93.35694952 89.42779808 93.35694952 88.22621155 93.05655289 C59.11132813 85.77783203 59.11132813 85.77783203 56.4319458 85.10797501 C54.65945136 84.664859 52.88694977 84.22177158 51.11444092 83.77871323 C46.79975808 82.70017379 42.48519338 81.62116677 38.17089844 80.54107666 C30.83530411 78.70506147 23.49886467 76.87319096 16.15625 75.06542969 C14.4473761 74.6432869 14.4473761 74.6432869 12.70397949 74.21261597 C10.65628774 73.70731094 8.60791148 73.20476806 6.55871582 72.70559692 C5.25444641 72.38315506 5.25444641 72.38315506 3.92382812 72.05419922 C3.18136841 71.8725119 2.43890869 71.69082458 1.6739502 71.50363159 C0 71 0 71 -1 70 C-1.08669432 68.5112814 -1.10703494 67.018555 -1.09765625 65.52734375 C-1.09443359 64.62822266 -1.09121094 63.72910156 -1.08789062 62.80273438 C-1.07951172 61.85720703 -1.07113281 60.91167969 -1.0625 59.9375 C-1.05798828 58.98810547 -1.05347656 58.03871094 -1.04882812 57.06054688 C-1.0370011 54.70696935 -1.02052025 52.35351523 -1 50 C0.98 49.34 2.96 48.68 5 48 C3.7934375 47.0409375 3.7934375 47.0409375 2.5625 46.0625 C0 44 0 44 -1 43 C-1.0634834 41.64787309 -1.05723393 40.29235963 -1.02172852 38.93920898 C-1.00163223 38.07839218 -0.98153595 37.21757538 -0.96083069 36.33067322 C-0.92027809 34.92755638 -0.92027809 34.92755638 -0.87890625 33.49609375 C-0.85529526 32.54307877 -0.83168427 31.59006378 -0.80735779 30.60816956 C-0.73051613 27.55113579 -0.64658053 24.49434242 -0.5625 21.4375 C-0.50929982 19.37045464 -0.45655931 17.3033974 -0.40429688 15.23632812 C-0.27487338 10.15739859 -0.13908558 5.07867376 0 0 Z " fill="#FEC66F" transform="translate(79,59)"/>
<path d="M0 0 C-0.4125 1.19625 -0.825 2.3925 -1.25 3.625 C-3.38463891 10.0187518 -5.20414145 16.5041693 -7 23 C-7.27021973 23.95181152 -7.27021973 23.95181152 -7.54589844 24.92285156 C-8.02899172 27.13261376 -8.12938218 29.11075591 -8.1328125 31.37109375 C-8.13474609 32.60375977 -8.13474609 32.60375977 -8.13671875 33.86132812 C-8.13285156 34.71146484 -8.12898437 35.56160156 -8.125 36.4375 C-8.12886719 37.28376953 -8.13273438 38.13003906 -8.13671875 39.00195312 C-8.13542969 39.82501953 -8.13414062 40.64808594 -8.1328125 41.49609375 C-8.13112061 42.61262329 -8.13112061 42.61262329 -8.12939453 43.75170898 C-7.98623612 46.2391539 -7.5079578 48.56355783 -7 51 C-14.17939423 53.94789249 -21.42870212 56.61769884 -28.7578125 59.16796875 C-29.87759491 59.55974808 -30.99737732 59.9515274 -32.15109253 60.35517883 C-34.55547946 61.19621745 -36.9602035 62.03629284 -39.36523438 62.87548828 C-45.15436716 64.89567007 -50.94140575 66.92182692 -56.72841644 68.94807816 C-58.04272487 69.40823777 -59.35706115 69.86831787 -60.67142487 70.32831955 C-73.12558287 74.68711347 -85.56539989 79.0857415 -98 83.5 C-118.54367418 90.79041765 -139.10963216 98.01659546 -159.68164062 105.2265625 C-160.83201813 105.62992828 -161.98239563 106.03329407 -163.16763306 106.44888306 C-165.39725772 107.22990885 -167.6273675 108.0095514 -169.85800171 108.78768921 C-174.68218514 110.47258667 -179.49766959 112.17285198 -184.28955078 113.94775391 C-185.08031509 114.23761673 -185.87107941 114.52747955 -186.68580627 114.8261261 C-188.11315317 115.35128988 -189.53743519 115.88490489 -190.95762634 116.42912292 C-193.54588698 117.37665332 -195.57435954 118.04133121 -198.34326172 117.77246094 C-203.27074101 115.47500375 -205.95628984 107.45360235 -207.875 102.625 C-209 99 -209 99 -209 95 C-210.485 95.495 -210.485 95.495 -212 96 C-211.84660156 95.29875 -211.69320313 94.5975 -211.53515625 93.875 C-210.95484987 91.01259886 -210.95484987 91.01259886 -210.74609375 88.125 C-209.3822824 74.31425212 -201.44747264 64.65244739 -192 55 C-191.61342728 54.50976852 -191.22685455 54.01953705 -190.8285675 53.51445007 C-188.13791105 51.28600357 -185.07573008 50.6277965 -181.76245117 49.74536133 C-180.64968638 49.43604959 -180.64968638 49.43604959 -179.51444149 49.12048912 C-177.02647163 48.43147223 -174.53481605 47.75687866 -172.04296875 47.08203125 C-170.26308473 46.59200228 -168.48345783 46.10103858 -166.70407104 45.60920715 C-162.87524647 44.55289125 -159.04478609 43.50281311 -155.21292114 42.45758057 C-149.16131746 40.80678476 -143.11340629 39.14275915 -137.06616211 37.47607422 C-130.78702482 35.7460316 -124.50769976 34.0166957 -118.22712708 32.29187012 C-103.5667257 28.26499006 -88.91630753 24.20344066 -74.2734375 20.11328125 C-73.28581484 19.83741243 -72.29819218 19.56154362 -71.28064156 19.27731514 C-65.47994384 17.65670168 -59.67959612 16.03483838 -53.87933731 14.41265488 C-46.64893678 12.39086249 -39.4178775 10.37142795 -32.18674088 8.35227013 C-29.8109098 7.68871131 -27.43521362 7.02467147 -25.05953979 6.36054993 C-21.04053352 5.23733508 -17.02034504 4.11841315 -13 3 C-11.876008 2.68504578 -10.75201599 2.37009155 -9.59396362 2.04559326 C-8.59930084 1.7693512 -7.60463806 1.49310913 -6.57983398 1.20849609 C-5.30957619 0.85396866 -5.30957619 0.85396866 -4.01365662 0.49227905 C-2 0 -2 0 0 0 Z " fill="#FEC670" transform="translate(499,295)"/>
<path d="M0 0 C0.18451025 18.82004556 0.18451025 18.82004556 -1 28 C-0.01 28 0.98 28 2 28 C2 38.23 2 48.46 2 59 C-13.01300682 62.81040782 -27.99808785 66.5007614 -43.13012695 69.79931641 C-50.45524403 71.40626763 -57.73335211 73.14735111 -65 75 C-79.57043078 78.71343022 -94.24718161 82.08757718 -109 85 C-109.23074219 84.21496094 -109.46148437 83.42992187 -109.69921875 82.62109375 C-111.70635685 76.15541174 -113.83786233 71.31828702 -118 66 C-118 65.34 -118 64.68 -118 64 C-116.78441406 63.73445313 -115.56882812 63.46890625 -114.31640625 63.1953125 C-112.73167183 62.83898168 -111.14704169 62.48218686 -109.5625 62.125 C-108.76005859 61.95097656 -107.95761719 61.77695313 -107.13085938 61.59765625 C-105.0717622 61.12849487 -103.03341657 60.57027241 -101 60 C-100.505 59.01 -100.505 59.01 -100 58 C-129.99506472 63.38035513 -129.99506472 63.38035513 -159.62207031 70.43896484 C-164.74665956 71.80452661 -169.71537302 72.51483681 -175 73 C-175.87153901 63.6842164 -173.75251854 55.47930167 -170 47 C-169.72534912 46.30028076 -169.45069824 45.60056152 -169.16772461 44.87963867 C-167.47041475 41.36035321 -166.05161763 39.44939489 -162.40112305 37.8894043 C-158.9305975 36.98373139 -155.46942353 36.31294947 -151.9375 35.6875 C-149.14396654 35.13652864 -146.35560944 34.56071548 -143.56640625 33.98828125 C-142.8182666 33.83814575 -142.07012695 33.68801025 -141.29931641 33.5333252 C-131.24257777 31.4917277 -121.31786763 28.90378553 -111.375 26.375 C-107.77915414 25.46412681 -104.18274908 24.55548953 -100.5859375 23.6484375 C-99.27025536 23.31653915 -99.27025536 23.31653915 -97.92799377 22.97793579 C-89.1727867 20.77755453 -80.39201317 18.68914773 -71.60601807 16.61572266 C-67.28292595 15.59430773 -62.96187499 14.56433128 -58.640625 13.53515625 C-56.92188324 13.12610472 -55.20313321 12.71708789 -53.484375 12.30810547 C-52.62779297 12.10425232 -51.77121094 11.90039917 -50.88867188 11.69036865 C-49.09767963 11.2642043 -47.30666318 10.83814166 -45.515625 10.41217041 C-36.6064748 8.29321932 -27.6977201 6.17314196 -18.796875 4.01953125 C-17.62608398 3.73650146 -16.45529297 3.45347168 -15.24902344 3.16186523 C-13.14241401 2.65167571 -11.0362637 2.13958526 -8.93066406 1.62524414 C-8.02541992 1.40602295 -7.12017578 1.18680176 -6.1875 0.9609375 C-5.41792969 0.77321777 -4.64835938 0.58549805 -3.85546875 0.39208984 C-2 0 -2 0 0 0 Z " fill="#FEC66F" transform="translate(447,167)"/>
<path d="M0 0 C7.09687856 5.96137799 9.46649154 17.70687673 10.34765625 26.44921875 C10.71241583 40.35766002 7.58301568 54.28620193 2 67 C-0.16296192 69.16296192 -1.10666418 69.48153887 -3.98306274 70.25880432 C-4.8156662 70.48729065 -5.64826965 70.71577698 -6.50610352 70.95118713 C-7.87907593 71.31674965 -7.87907593 71.31674965 -9.27978516 71.68969727 C-10.24258392 71.95172943 -11.20538269 72.2137616 -12.19735718 72.48373413 C-15.39279718 73.35141401 -18.59081498 74.20913757 -21.7890625 75.06640625 C-24.00918225 75.66606016 -26.22918194 76.26615871 -28.44906616 76.86668396 C-33.11023085 78.1259984 -37.77265371 79.38051197 -42.43603516 80.6315918 C-48.40344793 82.23282761 -54.36787879 83.84485558 -60.33143044 85.4604044 C-64.92007882 86.70237227 -69.51014224 87.93904113 -74.10065842 89.17408562 C-76.29941881 89.76622567 -78.4977702 90.35988667 -80.69569778 90.95511055 C-83.77701852 91.78860734 -86.86014468 92.61506429 -89.94384766 93.43969727 C-91.29860199 93.80829613 -91.29860199 93.80829613 -92.6807251 94.18434143 C-97.79092281 95.54181058 -102.73748916 96.46932844 -108 97 C-107.76756166 92.40563366 -107.52825844 87.81192941 -107.2734375 83.21875 C-107.09514915 79.96887639 -106.9515932 76.72192234 -106.8515625 73.46875 C-106.79693841 72.12499742 -106.74225456 70.78124727 -106.6875 69.4375 C-106.65011719 68.23996094 -106.61273438 67.04242188 -106.57421875 65.80859375 C-106 63 -106 63 -103.95703125 61.59765625 C-102.98830078 61.30181641 -102.98830078 61.30181641 -102 61 C-104.31 60.67 -106.62 60.34 -109 60 C-109.11624151 45.95444909 -108.94682519 32.0146025 -108 18 C-92.95781199 14.650594 -77.83138817 12.04517292 -62.625 9.5625 C-57.83566225 8.77510523 -53.04673439 7.98523204 -48.2578125 7.1953125 C-47.09973083 7.00470749 -45.94164917 6.81410248 -44.74847412 6.61772156 C-38.24075059 5.5443394 -31.73792068 4.44840932 -25.2421875 3.3046875 C-24.55162262 3.1833696 -23.86105774 3.0620517 -23.14956665 2.9370575 C-20.1304438 2.40535696 -17.11263108 1.86728904 -14.09619141 1.32055664 C-3.70820159 -0.52055196 -3.70820159 -0.52055196 0 0 Z " fill="#FEC66F" transform="translate(307,63)"/>
<path d="M0 0 C0.66473831 0.13741608 1.32947662 0.27483215 2.01435852 0.41641235 C4.17060555 0.86334941 6.32553459 1.31631026 8.48046875 1.76953125 C10.01475422 2.08905954 11.54909762 2.40830973 13.08349609 2.72729492 C23.07103251 4.80809713 33.0559549 6.90625762 43.01782227 9.10693359 C49.84952727 10.60256091 56.69019778 11.97545085 63.56503296 13.25679016 C67.92620979 14.07422546 72.2817225 14.9199353 76.637146 15.76742554 C78.80646607 16.18207549 80.9782577 16.58401791 83.15240479 16.9725647 C102.80378382 20.49373173 102.80378382 20.49373173 107.9375 26.11328125 C109.47973633 28.33789062 109.47973633 28.33789062 110.66796875 30.58203125 C111.10850586 31.40485596 111.54904297 32.22768066 112.00292969 33.07543945 C118.14107427 45.29056465 115.937051 59.80925212 114.35546875 72.89453125 C114.2378418 73.89597168 114.12021484 74.89741211 113.99902344 75.92919922 C111.67493011 93.90674463 111.67493011 93.90674463 106.66796875 99.58203125 C104.06790343 100.62940739 101.80749852 101.33191044 99.10546875 101.95703125 C97.46996442 102.37335368 95.83455325 102.79004223 94.19921875 103.20703125 C93.31105469 103.42617187 92.42289063 103.6453125 91.5078125 103.87109375 C86.35464402 105.16115794 81.23296712 106.56912258 76.10546875 107.95703125 C75.00275635 108.25262939 73.90004395 108.54822754 72.76391602 108.8527832 C65.17253927 110.88949404 57.60489781 113.0014408 50.04296875 115.14453125 C40.79105696 117.76317547 31.50129874 120.16353263 22.15966797 122.44018555 C15.42694799 124.09502729 8.77747656 125.93306687 2.19335938 128.10986328 C-7.22049 131.0781277 -15.2809533 128.90497893 -24.59375 126.6171875 C-25.89433908 126.30450342 -27.19512003 125.99261643 -28.49607849 125.68147278 C-31.95862378 124.85100184 -35.41839822 124.00950121 -38.87772369 123.16573334 C-42.46167188 122.29359089 -46.04810451 121.4317875 -49.63427734 120.56884766 C-56.62845278 118.88403985 -63.61983038 117.18789402 -70.61016846 115.48724365 C-73.93098507 114.67957165 -77.25220663 113.87360535 -80.57373047 113.06884766 C-88.35962399 111.1824266 -96.14404435 109.29021302 -103.92578125 107.38671875 C-111.43948751 105.55067719 -118.96193197 103.75265244 -126.49267578 101.98779297 C-129.48611956 101.28272831 -132.41253717 100.55519594 -135.33203125 99.58203125 C-135.33203125 97.27203125 -135.33203125 94.96203125 -135.33203125 92.58203125 C-127.8655153 93.21371869 -120.83421091 94.7628633 -113.5703125 96.5703125 C-111.69210564 97.03078728 -111.69210564 97.03078728 -109.7759552 97.50056458 C-106.34605003 98.34238152 -102.91819522 99.19225596 -99.49097443 100.0449295 C-97.31156198 100.58712359 -95.13185465 101.1281185 -92.9520874 101.66888428 C-82.93018004 104.1564572 -72.91292644 106.66246689 -62.89691162 109.17364502 C-58.90350008 110.17458663 -54.90974355 111.17414979 -50.91601562 112.17382812 C-39.43293555 115.04843281 -39.43293555 115.04843281 -35.32080555 116.08038807 C-33.9832639 116.41509235 -32.64526595 116.74797898 -31.30679607 117.07895184 C-27.87252098 117.93050105 -24.45300034 118.817318 -21.04263306 119.76040649 C-20.33421674 119.95106091 -19.62580042 120.14171534 -18.89591694 120.33814716 C-16.94148376 120.86520402 -14.99082957 121.40621793 -13.04048157 121.94819641 C-5.74751281 123.1946841 0.97863943 121.1286845 7.98632812 119.22119141 C9.32942802 118.86244179 9.32942802 118.86244179 10.69966125 118.4964447 C13.6384629 117.70995295 16.57511401 116.91574552 19.51171875 116.12109375 C21.56610753 115.56884915 23.62059316 115.01696476 25.6751709 114.46542358 C29.9730108 113.31042718 34.26982598 112.15171491 38.56591797 110.99023438 C44.05834407 109.50553927 49.55295744 108.02913761 55.04833221 106.55539894 C59.28887944 105.41737142 63.52836539 104.27543183 67.76753235 103.13227463 C69.79253503 102.58660007 71.81783095 102.04201245 73.84342957 101.49855423 C76.67988882 100.73680921 79.51490874 99.96991997 82.34960938 99.20166016 C83.17789749 98.98024857 84.00618561 98.75883698 84.85957336 98.53071594 C93.8551906 96.57721394 93.8551906 96.57721394 101.09521484 91.77954102 C101.29195801 91.11752686 101.48870117 90.4555127 101.69140625 89.7734375 C101.92649902 89.03254883 102.1615918 88.29166016 102.40380859 87.52832031 C102.61473145 86.74166992 102.8256543 85.95501953 103.04296875 85.14453125 C103.40382568 83.92781738 103.40382568 83.92781738 103.77197266 82.68652344 C108.53131993 66.16164984 110.50998954 48.76212796 102.2890625 32.92578125 C101.15795236 31.09538079 99.92521222 29.32820274 98.66796875 27.58203125 C88.40892082 28.09404785 78.40324197 29.85988726 68.29989624 31.62088013 C65.23578535 32.15448964 62.17043214 32.68041223 59.10473633 33.20483398 C49.36424881 34.87577744 39.63049149 36.58003229 29.90655518 38.34486389 C25.72635069 39.10291174 21.54455997 39.85201168 17.36273193 40.6010437 C14.41319576 41.13409854 11.46671089 41.68218553 8.52001953 42.23071289 C6.69837471 42.55819246 4.87660366 42.88497087 3.0546875 43.2109375 C1.84656151 43.4430896 1.84656151 43.4430896 0.61402893 43.67993164 C-8.36769657 45.25078382 -16.88105968 43.6099529 -25.7421875 41.9375 C-26.64014038 41.77155334 -27.53809326 41.60560669 -28.46325684 41.43463135 C-31.44106907 40.88340693 -34.41777938 40.32645094 -37.39453125 39.76953125 C-39.5044 39.37792737 -41.61434674 38.98674348 -43.72436523 38.59594727 C-48.35175715 37.73840281 -52.97873009 36.87863987 -57.60546875 36.01757812 C-66.07533334 34.44244007 -74.54731711 32.87885014 -83.01953125 31.31640625 C-84.51981105 31.0396986 -86.0200908 30.76299064 -87.52037048 30.48628235 C-89.75856948 30.07348382 -91.99677022 29.66069479 -94.23497677 29.2479372 C-102.10224374 27.7970159 -109.96911712 26.34396542 -117.8359375 24.890625 C-119.10232056 24.6566803 -120.36870361 24.4227356 -121.67346191 24.18170166 C-124.55965675 23.64850557 -127.44584698 23.11528454 -130.33203125 22.58203125 C-130.33203125 19.61203125 -130.33203125 16.64203125 -130.33203125 13.58203125 C-129.05787354 13.41598389 -127.78371582 13.24993652 -126.47094727 13.07885742 C-121.6600547 12.45086419 -116.84983953 11.81780219 -112.03979492 11.18334961 C-109.97356498 10.91149835 -107.90716312 10.64095001 -105.84057617 10.37182617 C-91.38916734 8.49881973 -91.38916734 8.49881973 -77.015625 6.1171875 C-66.50299843 4.17960715 -55.91759076 2.74986936 -45.32714844 1.31005859 C-41.80905213 0.8288884 -38.29330626 0.33242929 -34.77734375 -0.1640625 C-32.51445166 -0.47359887 -30.25143488 -0.78222541 -27.98828125 -1.08984375 C-26.95062622 -1.23871033 -25.91297119 -1.3875769 -24.84387207 -1.54095459 C-16.08478634 -2.70113515 -8.61946451 -1.79593895 0 0 Z " fill="#B4DBDA" transform="translate(208.33203125,36.41796875)"/>
<path d="M0 0 C2.32512749 0.46537467 4.58910786 0.99744607 6.8828125 1.58984375 C7.95458237 1.85941391 7.95458237 1.85941391 9.04800415 2.13442993 C11.4084843 2.72975922 13.76671623 3.33353411 16.125 3.9375 C17.74760937 4.34866809 19.37033176 4.75939042 20.99316406 5.16967773 C25.99776697 6.43741533 30.99921753 7.71728609 36 9 C36.79168579 9.20290649 37.58337158 9.40581299 38.39904785 9.61486816 C47.93699198 12.06007459 57.4706475 14.52150911 67 17 C65.89007981 19.809205 64.74171577 22.56876061 63.4921875 25.3203125 C57.68791446 38.63662037 56.39570188 52.76668868 61.77734375 66.5390625 C63.50990945 70.02633532 65.60239094 72.93638842 68 76 C68 76.66 68 77.32 68 78 C68.99 78 69.98 78 71 78 C70.60167969 77.28714844 70.20335937 76.57429688 69.79296875 75.83984375 C61.8047791 61.39890723 61.8047791 61.39890723 62 55 C64.18358769 54.53642979 66.36718318 54.0728963 68.55078125 53.609375 C69.23256943 53.46457703 69.9143576 53.31977905 70.61680603 53.17059326 C74.36813812 52.37408609 78.11979377 51.57915618 81.87207031 50.78710938 C88.33634146 49.42155389 94.79929997 48.05575016 101.24609375 46.609375 C102.11258545 46.41762695 102.97907715 46.22587891 103.87182617 46.02832031 C105.40897306 45.68683732 106.94445784 45.33774421 108.4777832 44.97949219 C112.26941367 44.14548793 115.31643137 43.60323235 119 45 C124.30688303 50.25896535 126.1255313 56.77809472 127 64 C127.69246826 63.70125977 128.38493652 63.40251953 129.09838867 63.09472656 C132.18999521 61.92831817 135.19788341 61.18945435 138.42578125 60.484375 C139.68487305 60.20585693 140.94396484 59.92733887 142.24121094 59.64038086 C142.90471558 59.49535126 143.56822021 59.35032166 144.25183105 59.20089722 C147.76526636 58.43211861 151.27544371 57.64885875 154.78515625 56.86328125 C155.84185013 56.62678612 155.84185013 56.62678612 156.91989136 56.38551331 C163.05603408 55.00375101 169.15627551 53.4955634 175.25 51.9375 C184.84731844 49.48876465 194.48835975 47.30316334 204.1652832 45.19262695 C212.12440689 43.44716952 220.03228818 41.55099005 227.91113281 39.47241211 C231.42156708 38.56161508 234.34702192 38 238 38 C238 34.37 238 30.74 238 27 C238.33 27 238.66 27 239 27 C239.33 32.28 239.66 37.56 240 43 C238.040625 43.37125 236.08125 43.7425 234.0625 44.125 C223.72270153 46.15529623 213.50446925 48.71412023 203.26855469 51.20605469 C198.09857527 52.46186385 192.92407195 53.69868431 187.75 54.9375 C178.47814611 57.16242067 169.20726195 59.39137992 159.9375 61.625 C158.71144043 61.92019531 157.48538086 62.21539062 156.22216797 62.51953125 C148.38991526 64.40974471 140.57276418 66.34935939 132.7734375 68.37109375 C130 69 130 69 127 69 C127 73.29 127 77.58 127 82 C123.94877188 80.01315378 121.07115099 78.05821444 118.25 75.75 C116.21195569 73.79535313 116.21195569 73.79535313 114 74 C112.5875304 75.61755209 111.24258458 77.29462632 109.9375 79 C108.64528834 80.68244556 107.33775347 82.35353419 106 84 C105.67 84 105.34 84 105 84 C104.505 79.545 104.505 79.545 104 75 C102.80624756 75.31022095 102.80624756 75.31022095 101.58837891 75.62670898 C98.58921075 76.40231086 95.5884157 77.17118998 92.58642578 77.93579102 C90.6669966 78.42675778 88.7494872 78.92521059 86.83203125 79.42382812 C85.60097656 79.73642578 84.36992187 80.04902344 83.1015625 80.37109375 C81.98088379 80.65911865 80.86020508 80.94714355 79.70556641 81.24389648 C69.53743398 83.31865641 61.71674988 82.49403174 51.63671875 79.94921875 C50.27299708 79.61276592 48.90921105 79.27657384 47.54536438 78.94062805 C44.70400224 78.23562691 41.86666886 77.51638162 39.03100586 76.78881836 C35.41097831 75.86293552 31.78018308 74.99110501 28.14392376 74.13154888 C25.32868256 73.45663732 22.52373545 72.74479898 19.72028542 72.02262306 C18.38527051 71.68514539 17.04681038 71.36098392 15.70514488 71.0510006 C5.29528468 68.62346268 5.29528468 68.62346268 2.09129333 64.60769653 C0.81484175 62.0959125 -0.15123495 59.68251949 -1 57 C-1.67482422 55.34484375 -1.67482422 55.34484375 -2.36328125 53.65625 C-7.33277169 37.13218301 -7.37858809 17.1642132 -1 1 C-0.67 0.67 -0.34 0.34 0 0 Z " fill="#F3C3D1" transform="translate(211,188)"/>
<path d="M0 0 C-0.32613281 0.89332031 -0.65226563 1.78664062 -0.98828125 2.70703125 C-2.57434063 8.26873815 -2.25044547 13.95283643 -2.1875 19.6875 C-2.18685547 20.81478516 -2.18621094 21.94207031 -2.18554688 23.10351562 C-2.21805504 29.62918138 -2.21805504 29.62918138 -1 36 C-8.77003466 37.94556559 -16.54092146 39.88755805 -24.31524658 41.81591797 C-27.71979538 42.6606887 -31.1238331 43.50750888 -34.52783203 44.35449219 C-36.26264995 44.78566897 -37.9976772 45.21600436 -39.73291016 45.64550781 C-49.06698458 47.95666883 -58.35207611 50.34599662 -67.5859375 53.03515625 C-73.99587284 54.84665972 -80.46991408 56.40969913 -86.9375 58 C-96.16262001 60.27435245 -105.36510222 62.60538843 -114.54125977 65.07128906 C-119.35451022 66.36370134 -124.17674353 67.62055634 -129 68.875 C-129.95769287 69.12475586 -130.91538574 69.37451172 -131.90209961 69.63183594 C-137.05955074 70.9764916 -142.21840742 72.31552553 -147.37890625 73.6484375 C-148.41466797 73.91672363 -149.45042969 74.18500977 -150.51757812 74.46142578 C-152.49890168 74.97454919 -154.48065164 75.48602989 -156.46289062 75.99560547 C-161.04011001 77.18250434 -165.51887856 78.48331274 -170 80 C-173.0625 80.5 -173.0625 80.5 -176 80 C-180.84117792 75.15882208 -182.16068865 71.64116946 -182.3125 64.9375 C-182.27660657 58.50539662 -180.87472456 53.69699065 -178 48 C-177.65582031 47.00432007 -177.65582031 47.00432007 -177.3046875 45.98852539 C-175.3819147 43.05795196 -173.41446387 42.91038076 -170.0546875 42.0625 C-169.12271042 41.82028717 -169.12271042 41.82028717 -168.17190552 41.57318115 C-166.07661474 41.03306118 -163.97617219 40.51672594 -161.875 40 C-160.38246393 39.62018225 -158.89028468 39.23895994 -157.3984375 38.85644531 C-153.20505456 37.78662143 -149.00634772 36.73924703 -144.80603027 35.69702148 C-141.86241876 34.96582465 -138.91985995 34.23051309 -135.97753906 33.49414062 C-134.94815216 33.23652954 -133.91876526 32.97891846 -132.85818481 32.71350098 C-131.29256302 32.32164612 -131.29256302 32.32164612 -129.6953125 31.921875 C-123.44183548 30.35684177 -117.18769957 28.7948382 -110.92919922 27.25 C-102.27578327 25.10936502 -93.64055379 22.94261142 -85.0625 20.515625 C-73.07673789 17.12485358 -60.96908137 14.21282214 -48.87695312 11.22949219 C-27.41039928 5.96640798 -27.41039928 5.96640798 -6.19140625 -0.203125 C-3 -1 -3 -1 0 0 Z " fill="#FDC66F" transform="translate(483,245)"/>
<path d="M0 0 C21.47814101 4.39913732 42.84362324 9.23934801 64 15 C62.72425228 18.33340534 61.26463422 21.4286641 59.5625 24.5625 C52.87453501 37.93842998 52.26234523 51.24381179 56.86035156 65.30810547 C58.69890309 70.56533427 61.02473629 75.30823799 64 80 C64.33 80.66 64.66 81.32 65 82 C55.02167414 80.38174923 45.269118 77.92405333 35.47558594 75.45898438 C27.20835838 73.38368763 19.07731047 71.54617152 10.60107422 70.4921875 C6.2895149 69.67633396 4.82988132 68.39585759 2 65 C-5.29757553 53.72766431 -6.26787755 41.87960806 -6.375 28.8125 C-6.38893799 27.70777344 -6.40287598 26.60304687 -6.41723633 25.46484375 C-6.36293002 16.05363189 -4.57288378 8.27474207 0 0 Z " fill="#F3C4D1" transform="translate(51,148)"/>
<path d="M0 0 C4.78261107 1.12200181 9.56441535 2.24737278 14.34570312 3.375 C16.17488895 3.80571337 18.0043318 4.23533619 19.83398438 4.6640625 C22.70236711 5.33624916 25.56998095 6.01163959 28.4375 6.6875 C29.35490967 6.90172607 30.27231934 7.11595215 31.2175293 7.33666992 C32.07258057 7.53881104 32.92763184 7.74095215 33.80859375 7.94921875 C34.56970459 8.12799561 35.33081543 8.30677246 36.11499023 8.4909668 C38 9 38 9 40 10 C38.47416483 13.24806496 36.61604453 16.14278046 34.625 19.125 C27.56775496 30.33703231 25.49169035 39.81376354 27 53 C28.17425219 58.02923621 29.9421254 62.27558866 32.63671875 66.66796875 C34 69 34 69 34 71 C26.34457613 70.46942607 19.17741444 68.66095802 11.83325195 66.51879883 C10.48439036 66.13077908 9.13171656 65.75577823 7.77563477 65.39379883 C-5.84396796 61.75763273 -5.84396796 61.75763273 -10.03125 54.93652344 C-10.3509375 54.2974707 -10.670625 53.65841797 -11 53 C-11.3196875 52.37899414 -11.639375 51.75798828 -11.96875 51.11816406 C-16.73168532 40.92526198 -15.62436181 30.38983718 -12 20 C-8.67067508 12.82345518 -4.65236819 6.37102654 0 0 Z " fill="#F3C4D1" transform="translate(72,291)"/>
<path d="M0 0 C0.33 0 0.66 0 1 0 C1.33 5.28 1.66 10.56 2 16 C0.040625 16.37125 -1.91875 16.7425 -3.9375 17.125 C-14.27729847 19.15529623 -24.49553075 21.71412023 -34.73144531 24.20605469 C-39.90142473 25.46186385 -45.07592805 26.69868431 -50.25 27.9375 C-59.52185389 30.16242067 -68.79273805 32.39137992 -78.0625 34.625 C-79.90158936 35.06779297 -79.90158936 35.06779297 -81.77783203 35.51953125 C-89.61008474 37.40974471 -97.42723582 39.34935939 -105.2265625 41.37109375 C-108 42 -108 42 -111 42 C-111 46.29 -111 50.58 -111 55 C-114.05122812 53.01315378 -116.92884901 51.05821444 -119.75 48.75 C-121.78804431 46.79535313 -121.78804431 46.79535313 -124 47 C-125.4124696 48.61755209 -126.75741542 50.29462632 -128.0625 52 C-129.35471166 53.68244556 -130.66224653 55.35353419 -132 57 C-132.33 57 -132.66 57 -133 57 C-133.08636719 55.99582031 -133.17273438 54.99164063 -133.26171875 53.95703125 C-134.39439444 42.40601027 -136.74640056 31.40281409 -144 22 C-126.46203792 15.50445849 -126.46203792 15.50445849 -119 18 C-113.69311697 23.25896535 -111.8744687 29.77809472 -111 37 C-110.30753174 36.70125977 -109.61506348 36.40251953 -108.90161133 36.09472656 C-105.81000479 34.92831817 -102.80211659 34.18945435 -99.57421875 33.484375 C-98.31512695 33.20585693 -97.05603516 32.92733887 -95.75878906 32.64038086 C-95.09528442 32.49535126 -94.43177979 32.35032166 -93.74816895 32.20089722 C-90.23473364 31.43211861 -86.72455629 30.64885875 -83.21484375 29.86328125 C-82.51038116 29.70561783 -81.80591858 29.54795441 -81.08010864 29.38551331 C-74.94396592 28.00375101 -68.84372449 26.4955634 -62.75 24.9375 C-53.15268156 22.48876465 -43.51164025 20.30316334 -33.8347168 18.19262695 C-25.87559311 16.44716952 -17.96771182 14.55099005 -10.08886719 12.47241211 C-6.57843292 11.56161508 -3.65297808 11 0 11 C0 7.37 0 3.74 0 0 Z " fill="#B3DAD8" transform="translate(449,215)"/>
<path d="M0 0 C0 0.99 0 1.98 0 3 C-12.92116843 6.70753917 -25.90690579 9.96112436 -39 13 C-41.37504974 13.5531719 -43.7500469 14.1065696 -46.125 14.66015625 C-47.37079834 14.95051758 -48.61659668 15.24087891 -49.90014648 15.54003906 C-51.17059814 15.83620117 -52.4410498 16.13236328 -53.75 16.4375 C-55.02625244 16.73495117 -56.30250488 17.03240234 -57.61743164 17.33886719 C-80.743473 22.70860606 -80.743473 22.70860606 -103.75 28.5625 C-110.06546378 30.24662367 -116.39348056 31.85292138 -122.75 33.375 C-123.58764893 33.58125 -124.42529785 33.7875 -125.28833008 34 C-130.14196333 35.17222503 -134.99421733 36.20128262 -139.91177368 37.0725708 C-142.72736617 37.57757789 -145.5346106 38.12273323 -148.34216309 38.67047119 C-149.72439236 38.92908053 -151.11025171 39.16907512 -152.49914551 39.38909912 C-160.85543241 40.62955377 -160.85543241 40.62955377 -167.17504883 45.7434082 C-168.72858983 48.79553279 -169.93377593 51.74860241 -171 55 C-171.33080566 55.91096436 -171.66161133 56.82192871 -172.00244141 57.76049805 C-174.10095863 63.72400586 -174.6140538 69.72598764 -175 76 C-174.14664062 75.77795898 -173.29328125 75.55591797 -172.4140625 75.32714844 C-160.48282173 72.27976194 -148.47690659 69.60714351 -136.44287109 66.99853516 C-132.97710404 66.24502205 -129.51400571 65.47994635 -126.05078125 64.71484375 C-123.82567584 64.23105735 -121.60042058 63.74795953 -119.375 63.265625 C-118.35092041 63.03756165 -117.32684082 62.80949829 -116.27172852 62.57452393 C-110.71593784 61.38563092 -105.68154765 60.75539655 -100 61 C-100.33 61.99 -100.66 62.98 -101 64 C-102.91308594 64.7644043 -102.91308594 64.7644043 -105.484375 65.32421875 C-106.46470703 65.54440674 -107.44503906 65.76459473 -108.45507812 65.99145508 C-109.54240234 66.2211499 -110.62972656 66.45084473 -111.75 66.6875 C-113.44286133 67.06007935 -113.44286133 67.06007935 -115.16992188 67.44018555 C-117.69748383 67.99431268 -120.22569462 68.54306675 -122.75585938 69.08496094 C-126.55345231 69.90013583 -130.34546054 70.73917289 -134.13677979 71.58299255 C-137.43918741 72.31733418 -140.74292308 73.04556597 -144.04699707 73.77236938 C-145.66927899 74.12958222 -147.29127379 74.48810178 -148.91296387 74.84799194 C-157.25226171 76.69329756 -165.45738719 78.41055972 -174 79 C-172.29845558 85.69988189 -170.02720771 91.08041265 -166.20703125 96.87109375 C-165 99 -165 99 -165 102 C-165.99 102 -166.98 102 -168 102 C-177.32131799 90.85678804 -179.29523201 78.49838482 -178.31054688 64.43066406 C-177.47491013 57.89009849 -174.9874588 51.83234907 -172 46 C-171.70488525 45.37939697 -171.40977051 44.75879395 -171.10571289 44.11938477 C-168.67485318 39.84095873 -166.21086654 38.41055507 -161.51953125 36.99609375 C-159.29056554 36.44848386 -157.05414353 35.93065212 -154.8125 35.4375 C-153.60924072 35.1499585 -152.40598145 34.86241699 -151.16625977 34.56616211 C-147.44974373 33.6844457 -143.72611598 32.84009515 -140 32 C-137.87710888 31.50472232 -135.75468642 31.00743009 -133.6328125 30.5078125 C-129.40432278 29.51768961 -125.172479 28.54401322 -120.9375 27.58203125 C-113.2632194 25.83697234 -105.59904886 24.04994391 -97.9375 22.25 C-97.23631042 22.08543304 -96.53512085 21.92086609 -95.81268311 21.75131226 C-82.66495544 18.66218115 -69.54808214 15.45092269 -56.43240356 12.22888184 C-44.36239217 9.26678067 -32.27883729 6.41939809 -20.12915039 3.80029297 C-16.0412747 2.91702521 -11.98457569 2.03776778 -7.97265625 0.8515625 C-5.14340607 0.04108085 -2.92151002 -0.17706121 0 0 Z " fill="#A07332" transform="translate(447,164)"/>
<path d="M0 0 C6.15344986 0.75457737 12.11487338 2.08974905 18.1484375 3.5 C19.27003265 3.76063232 20.39162781 4.02126465 21.54721069 4.28979492 C36.80631505 7.85998254 52.01487839 11.63965559 67.22637939 15.40637207 C70.42542605 16.19809521 73.62490208 16.98807467 76.82439709 17.77798367 C91.15645913 21.31637164 105.48622886 24.86394145 119.80859375 28.44140625 C120.75131134 28.67678101 121.69402893 28.91215576 122.66531372 29.15466309 C132.07077784 31.5086685 141.43484857 33.99000317 150.765625 36.625 C152.90621184 37.22930184 155.04683798 37.83346451 157.1875 38.4375 C158.26950684 38.74292725 159.35151367 39.04835449 160.46630859 39.36303711 C166.9739156 41.18803249 173.49509568 42.90472507 180.0625 44.5 C188.59725825 46.5746564 197.01597226 48.98358448 205.42993164 51.50195312 C212.24232454 53.53184672 219.09126659 55.32750319 226 57 C226 57.99 226 58.98 226 60 C217.4155631 59.3825051 209.28463028 57.19113978 200.98828125 55.02734375 C199.41404459 54.62145039 197.83967537 54.21607083 196.2651825 53.81117249 C192.11770462 52.74297249 187.97222769 51.66719543 183.8270874 50.58996582 C180.53217438 49.7350271 177.2358864 48.88547016 173.93950176 48.03622627 C156.9188753 43.65094048 139.91854845 39.19564316 122.94085693 34.64701843 C114.00266605 32.25599269 105.04792849 29.95677902 96.0625 27.75 C87.15949476 25.55486269 78.28198016 23.29310404 69.42651367 20.91503906 C65.00303143 19.73376286 60.56824861 18.60423652 56.125 17.5 C55.28549805 17.29060791 54.44599609 17.08121582 53.58105469 16.86547852 C47.45273208 15.34380052 41.31156705 13.88285656 35.16162109 12.45141602 C29.68321261 11.1726895 24.22686213 9.81530038 18.77246094 8.43823242 C12.53518096 6.86951422 6.27305354 5.41788196 0 4 C0 2.68 0 1.36 0 0 Z " fill="#C2C564" transform="translate(53,145)"/>
<path d="M0 0 C6.48683087 0.59830514 12.60787947 1.71047644 18.92578125 3.2746582 C20.35907697 3.62233262 20.35907697 3.62233262 21.82132816 3.97703075 C24.98638783 4.74624268 28.1494225 5.5234622 31.3125 6.30078125 C33.56697959 6.85052183 35.82157519 7.39978685 38.07627869 7.9486084 C44.12950826 9.42361112 50.18097858 10.90571313 56.23209763 12.38934708 C61.27293879 13.62437569 66.31476812 14.85534199 71.35661602 16.08625317 C87.57399022 20.04563881 103.78776627 24.01962377 120 28 C121.06660606 28.26184082 122.13321213 28.52368164 123.23213959 28.79345703 C167.84997263 39.74774289 212.43967202 50.81406243 257 62 C257 62.99 257 63.98 257 65 C250.16911096 64.22097898 243.58681505 62.53186886 236.91796875 60.89453125 C235.60840631 60.57559832 234.2987679 60.25697722 232.98905945 59.93864441 C229.45813905 59.07962506 225.92818912 58.21667902 222.39839935 57.35302734 C218.66672259 56.44069575 214.93418231 55.53191251 211.20166016 54.62304688 C209.68139593 54.25284043 208.16113226 53.88263168 206.64086914 53.51242065 C205.88493469 53.3283453 205.12900024 53.14426994 204.35015869 52.95461655 C202.04024221 52.39196414 199.73043734 51.82885544 197.4206543 51.26565552 C187.9446128 48.95574354 178.46482317 46.66230124 168.98046875 44.38671875 C135.65391883 36.38790789 102.3926953 28.14827582 69.15332031 19.79638672 C60.00898667 17.49908017 50.86189121 15.21286175 41.7144165 12.92810059 C39.38360393 12.34587368 37.05286475 11.76335431 34.72216797 11.18066406 C34.00878265 11.00234039 33.29539734 10.82401672 32.56039429 10.64028931 C31.17785532 10.29452943 29.79538625 9.9484899 28.41299438 9.60214233 C24.46398049 8.61325883 20.51309812 7.63237216 16.56054688 6.65771484 C15.64343933 6.43069382 14.72633179 6.20367279 13.78143311 5.96977234 C11.99093134 5.52662285 10.19997175 5.08531807 8.4085083 4.64607239 C7.60177673 4.44600082 6.79504517 4.24592926 5.96386719 4.03979492 C5.24624207 3.86300705 4.52861694 3.68621918 3.78924561 3.5040741 C2 3 2 3 0 2 C0 1.34 0 0.68 0 0 Z " fill="#BDC760" transform="translate(44,282)"/>
<path d="M0 0 C5.32855535 5.60520721 8 12.33577858 8 20 C3.92594804 21.00129842 -0.14917256 21.9980879 -4.2253418 22.99072266 C-5.61171187 23.32900409 -6.99778292 23.66851352 -8.38354492 24.00927734 C-10.37601525 24.4990067 -12.36952095 24.98430278 -14.36328125 25.46875 C-16.16212769 25.90864258 -16.16212769 25.90864258 -17.99731445 26.35742188 C-21 27 -21 27 -24 27 C-25.75390625 24.55078125 -25.75390625 24.55078125 -27.5625 21.3125 C-28.46162109 19.72888672 -28.46162109 19.72888672 -29.37890625 18.11328125 C-31.8091254 13.44608929 -33.11013394 10.27163515 -33 5 C-29.10671705 4.11434777 -25.21071261 3.24198561 -21.31176758 2.3815918 C-19.98706955 2.08734027 -18.6631564 1.789531 -17.34008789 1.48803711 C-15.43327939 1.0541826 -13.52329638 0.63435612 -11.61328125 0.21484375 C-10.46641846 -0.04176025 -9.31955566 -0.29836426 -8.13793945 -0.56274414 C-5.02682285 -0.99626237 -2.98092009 -0.93671849 0 0 Z " fill="#FDC670" transform="translate(306,238)"/>
<path d="M0 0 C0.495 0.99 0.495 0.99 1 2 C-13.07008136 5.27621214 -27.21683063 7.96548442 -41.4375 10.5 C-42.53651642 10.69665253 -43.63553284 10.89330505 -44.76785278 11.09591675 C-57.47210079 13.36572574 -70.17790271 15.62343648 -82.9375 17.5625 C-83.939021 17.71847656 -84.94054199 17.87445313 -85.97241211 18.03515625 C-92.34682595 18.95838931 -98.56335337 19.16124723 -105 19 C-104.98839844 20.07894531 -104.97679687 21.15789062 -104.96484375 22.26953125 C-104.88351336 33.55666503 -105.32725183 44.73146811 -106 56 C-96.1 55.505 -96.1 55.505 -86 55 C-86.33 56.32 -86.66 57.64 -87 59 C-89.54788844 60.4492036 -91.88602523 61.61221266 -94.5625 62.75 C-98.2440625 64.35875 -98.2440625 64.35875 -102 66 C-102.66 76.23 -103.32 86.46 -104 97 C-105.32 97 -106.64 97 -108 97 C-107.76756166 92.40563366 -107.52825844 87.81192941 -107.2734375 83.21875 C-107.09514915 79.96887639 -106.9515932 76.72192234 -106.8515625 73.46875 C-106.79693841 72.12499742 -106.74225456 70.78124727 -106.6875 69.4375 C-106.65011719 68.23996094 -106.61273438 67.04242188 -106.57421875 65.80859375 C-106 63 -106 63 -103.95703125 61.59765625 C-102.98830078 61.30181641 -102.98830078 61.30181641 -102 61 C-104.31 60.67 -106.62 60.34 -109 60 C-109.11624151 45.95444909 -108.94682519 32.0146025 -108 18 C-92.95781199 14.650594 -77.83138817 12.04517292 -62.625 9.5625 C-57.83566225 8.77510523 -53.04673439 7.98523204 -48.2578125 7.1953125 C-47.09973083 7.00470749 -45.94164917 6.81410248 -44.74847412 6.61772156 C-38.24075059 5.5443394 -31.73792068 4.44840932 -25.2421875 3.3046875 C-24.55162262 3.1833696 -23.86105774 3.0620517 -23.14956665 2.9370575 C-20.1304438 2.40535696 -17.11263108 1.86728904 -14.09619141 1.32055664 C-9.33932231 0.47747605 -4.8553389 -0.25773203 0 0 Z " fill="#9F7330" transform="translate(307,63)"/>
<path d="M0 0 C4.1203964 1.62899393 6.1435929 4.04156405 8.21875 7.94921875 C9.58288672 11.53007763 9.82753269 15.19709577 10 19 C10.7734375 17.88625 10.7734375 17.88625 11.5625 16.75 C15.19503276 12.65175791 18.71568242 10.25860199 24.3125 9.625 C27 10 27 10 29 12 C29.86308583 19.0279846 27.78817241 23.15539114 24 29 C23.01 29 22.02 29 21 29 C21.81096762 25.48055801 23.0368754 22.24778906 24.37890625 18.90234375 C25.15518289 16.85821922 25.15518289 16.85821922 25 14 C18.80610191 14.74326777 15.93741452 18.46825876 12 23 C11.1800514 24.14696622 10.38268065 25.31098055 9.625 26.5 C9.08875 27.325 8.5525 28.15 8 29 C7.34 29 6.68 29 6 29 C5.94392578 27.53240234 5.94392578 27.53240234 5.88671875 26.03515625 C5.51143618 18.55158033 4.83002442 12.01353877 2 5 C-1.10084841 4.57439336 -3.91529069 4.400626 -7 5 C-10.17632764 7.7542981 -11.6892732 11.06781959 -13 15 C-13.08178114 16.70016844 -13.10749501 18.40336297 -13.09765625 20.10546875 C-13.09282227 21.57983398 -13.09282227 21.57983398 -13.08789062 23.08398438 C-13.07951172 24.10814453 -13.07113281 25.13230469 -13.0625 26.1875 C-13.05798828 27.22326172 -13.05347656 28.25902344 -13.04882812 29.32617188 C-13.0370401 31.88417266 -13.02058515 34.44205733 -13 37 C-16.77197266 38.09277344 -16.77197266 38.09277344 -18.82421875 37.2578125 C-19.43910156 36.88398437 -20.05398437 36.51015625 -20.6875 36.125 C-24.93926343 33.8319141 -29.14004434 32.71242866 -34 33 C-34.99 33.66 -35.98 34.32 -37 35 C-36.71461687 40.20456354 -36.71461687 40.20456354 -33.75 44.3125 C-29.06837155 47.18531746 -25.16838948 48.26362267 -19.6875 48.625 C-18.61886719 48.69976562 -17.55023438 48.77453125 -16.44921875 48.8515625 C-15.64097656 48.90054688 -14.83273438 48.94953125 -14 49 C-14 49.99 -14 50.98 -14 52 C-30.37043583 52.67378318 -30.37043583 52.67378318 -36.81640625 47.55859375 C-39.98786872 44.38713128 -41.40173502 41.82989477 -41.625 37.3125 C-41.39039695 34.50683909 -40.98859179 32.97772682 -39.6875 30.4375 C-34.81598204 27.83180435 -29.04429966 28.10398273 -23.796875 29.6484375 C-21.9375 30.4375 -21.9375 30.4375 -19 32 C-18.34 32.33 -17.68 32.66 -17 33 C-17.23589844 31.95392578 -17.23589844 31.95392578 -17.4765625 30.88671875 C-19.01843565 22.3834034 -18.87928265 14.68154368 -14.484375 7.1015625 C-10.58716488 1.58393343 -7.08157935 -1.03004791 0 0 Z " fill="#9F7638" transform="translate(71,1)"/>
<path d="M0 0 C0.33 0 0.66 0 1 0 C1.495 7.92 1.495 7.92 2 16 C0.040625 16.37125 -1.91875 16.7425 -3.9375 17.125 C-14.27729847 19.15529623 -24.49553075 21.71412023 -34.73144531 24.20605469 C-39.90142473 25.46186385 -45.07592805 26.69868431 -50.25 27.9375 C-59.52185389 30.16242067 -68.79273805 32.39137992 -78.0625 34.625 C-79.90158936 35.06779297 -79.90158936 35.06779297 -81.77783203 35.51953125 C-89.61008474 37.40974471 -97.42723582 39.34935939 -105.2265625 41.37109375 C-108 42 -108 42 -111 42 C-111 40.35 -111 38.7 -111 37 C-107.24024829 35.37799193 -103.57184816 34.35758911 -99.57421875 33.484375 C-97.68558105 33.0665979 -97.68558105 33.0665979 -95.75878906 32.64038086 C-95.09528442 32.49535126 -94.43177979 32.35032166 -93.74816895 32.20089722 C-90.23473364 31.43211861 -86.72455629 30.64885875 -83.21484375 29.86328125 C-82.51038116 29.70561783 -81.80591858 29.54795441 -81.08010864 29.38551331 C-74.94396592 28.00375101 -68.84372449 26.4955634 -62.75 24.9375 C-53.15268156 22.48876465 -43.51164025 20.30316334 -33.8347168 18.19262695 C-25.87559311 16.44716952 -17.96771182 14.55099005 -10.08886719 12.47241211 C-6.57843292 11.56161508 -3.65297808 11 0 11 C0 7.37 0 3.74 0 0 Z " fill="#F2C4CA" transform="translate(449,215)"/>
<path d="M0 0 C3.4375 0.875 3.4375 0.875 4.875 2.5 C5.62493116 5.66637601 5.56211626 8.63497731 5.4375 11.875 C6.10136719 11.81699219 6.76523437 11.75898438 7.44921875 11.69921875 C12.07474853 11.46287781 14.64878736 11.36465653 18.625 13.9375 C20.4375 16.875 20.4375 16.875 20.5625 20.4375 C19.01043773 25.17991249 16.60431452 26.77011981 12.26953125 28.98046875 C11.66496094 29.27566406 11.06039063 29.57085937 10.4375 29.875 C10.63279297 30.97908203 10.63279297 30.97908203 10.83203125 32.10546875 C11.95790213 40.07074216 11.95790213 40.07074216 9.375 44.0625 C5.90242052 46.20515542 4.44106113 46.61034796 0.4375 45.875 C-2.875 44.1875 -2.875 44.1875 -5.5625 41.875 C-6.4375 39.125 -6.4375 39.125 -6.5625 36.875 C-4.09449953 38.02673355 -2.51466435 38.92283565 -0.5625 40.875 C3.02093976 41.04177282 3.02093976 41.04177282 6.4375 40.875 C6.70682521 36.22447128 6.70682521 36.22447128 5.4375 31.875 C3.42080173 30.74149466 3.42080173 30.74149466 1.4375 29.875 C1.4375 28.885 1.4375 27.895 1.4375 26.875 C2.02917969 26.77703125 2.62085938 26.6790625 3.23046875 26.578125 C8.20839345 25.63613599 11.89299134 24.76252562 15.4375 20.875 C15.4375 19.555 15.4375 18.235 15.4375 16.875 C12.6576184 15.4850592 10.5188674 15.69011796 7.4375 15.875 C4.09484795 17.08206879 3.49045434 17.79556849 1.4375 20.875 C0.4475 20.875 -0.5425 20.875 -1.5625 20.875 C-0.6875 15.125 -0.6875 15.125 0.4375 12.875 C0.5064472 11.50157169 0.52217708 10.12497898 0.5 8.75 C0.479375 7.47125 0.45875 6.1925 0.4375 4.875 C-2.76227148 5.13444093 -4.16348676 5.41898487 -6.3125 7.875 C-7.96250218 11.83500523 -8.29372906 15.62100483 -8.5625 19.875 C-9.5525 19.875 -10.5425 19.875 -11.5625 19.875 C-13.32514426 16.34971149 -12.46590131 12.6106865 -11.5625 8.875 C-8.95299582 3.84508615 -6.06666998 -0.21286561 0 0 Z " fill="#A1793B" transform="translate(469.5625,185.125)"/>
<path d="M0 0 C16.003934 1.31896444 31.81507284 3.46272256 47.6875 5.875 C49.97323213 6.21794921 52.25903933 6.56039854 54.54492188 6.90234375 C70.03652147 9.22507003 85.51887215 11.60861315 101 14 C101 14.99 101 15.98 101 17 C89.7770578 16.65626517 78.84388078 15.20583227 67.75854492 13.45996094 C61.62387576 12.50050819 55.53111495 11.72336488 49.34301758 11.21044922 C46.61444532 10.96536958 43.94415751 10.55642888 41.25 10.0625 C36.6975068 9.26743327 32.14516301 8.5981482 27.5625 8 C26.30566406 7.83242187 25.04882812 7.66484375 23.75390625 7.4921875 C21.30515186 7.17112293 18.85462764 6.863202 16.40234375 6.5703125 C10.00022546 5.73237739 5.32546785 4.71544268 0 1 C0 0.67 0 0.34 0 0 Z " fill="#A0732F" transform="translate(81,103)"/>
<path d="M0 0 C-0.33 1.32 -0.66 2.64 -1 4 C-1.62342285 4.16081055 -2.2468457 4.32162109 -2.88916016 4.48730469 C-17.05071235 8.11525141 -17.05071235 8.11525141 -31.125 12.0625 C-37.49351704 13.91681761 -43.9220402 15.4245071 -50.38110352 16.92285156 C-59.13853352 18.97899159 -67.80689305 21.34344564 -76.46972656 23.76489258 C-77.52256836 24.05517334 -78.57541016 24.3454541 -79.66015625 24.64453125 C-80.59480713 24.90596924 -81.52945801 25.16740723 -82.49243164 25.43676758 C-85 26 -85 26 -89 26 C-88.505 24.515 -88.505 24.515 -88 23 C-85.95654297 22.02026367 -85.95654297 22.02026367 -83.2421875 21.16796875 C-82.23615479 20.84747559 -81.23012207 20.52698242 -80.19360352 20.19677734 C-79.09846436 19.86371582 -78.0033252 19.5306543 -76.875 19.1875 C-75.18105103 18.6608374 -75.18105103 18.6608374 -73.45288086 18.12353516 C-56.80495321 13.01486876 -39.94535741 8.88041808 -22.95336914 5.09130859 C-17.2600213 3.81076523 -11.69655811 2.37622811 -6.1496582 0.55737305 C-4 0 -4 0 0 0 Z " fill="#9F7235" transform="translate(366,151)"/>
<path d="M0 0 C-0.33 1.32 -0.66 2.64 -1 4 C-1.94915283 4.2333606 -1.94915283 4.2333606 -2.91748047 4.47143555 C-13.87925044 7.17272178 -24.82814436 9.89024132 -35.69335938 12.95922852 C-43.23535219 15.08355649 -50.80438195 17.10565969 -58.375 19.125 C-60.26532959 19.63039307 -60.26532959 19.63039307 -62.19384766 20.14599609 C-68.03205165 21.70115759 -73.87405527 23.24167994 -79.7265625 24.7421875 C-80.67354004 24.98565918 -81.62051758 25.22913086 -82.59619141 25.47998047 C-85 26 -85 26 -88 26 C-87.67 24.68 -87.34 23.36 -87 22 C-72.51874637 17.85880477 -58.00728717 13.93877057 -43.3828125 10.3359375 C-38.99043785 9.25273972 -34.61755923 8.11664666 -30.25 6.9375 C-24.26231871 5.32490856 -18.26147627 3.77107268 -12.25 2.25 C-11.37891602 2.02691162 -10.50783203 1.80382324 -9.61035156 1.57397461 C-8.7953418 1.36909424 -7.98033203 1.16421387 -7.140625 0.953125 C-6.41391602 0.76911133 -5.68720703 0.58509766 -4.93847656 0.39550781 C-3 0 -3 0 0 0 Z " fill="#A27430" transform="translate(441,269)"/>
<path d="M0 0 C0 0.99 0 1.98 0 3 C-9.6622365 6.67842513 -19.32927937 10.34394914 -29 14 C-30.0101416 14.38269043 -31.0202832 14.76538086 -32.06103516 15.15966797 C-40.94221824 18.51712983 -49.73999753 21.8150556 -59 24 C-58.75634766 21.6242981 -58.75634766 21.6242981 -58 19 C-56.23193359 17.81149292 -56.23193359 17.81149292 -53.8984375 17.01123047 C-52.59072388 16.54582352 -52.59072388 16.54582352 -51.2565918 16.0710144 C-50.3056665 15.75625153 -49.35474121 15.44148865 -48.375 15.1171875 C-47.39893799 14.77624054 -46.42287598 14.43529358 -45.41723633 14.08401489 C-42.28450307 12.99485864 -39.14278118 11.93476946 -36 10.875 C-33.91211058 10.15422342 -31.82486173 9.43158838 -29.73828125 8.70703125 C-25.00833087 7.06999031 -20.27404902 5.44714261 -15.52880859 3.85491943 C-13.84036301 3.28410322 -12.1557289 2.70188871 -10.47509766 2.10845947 C-9.29052979 1.6953653 -9.29052979 1.6953653 -8.08203125 1.27392578 C-7.04332886 0.90522873 -7.04332886 0.90522873 -5.98364258 0.52908325 C-4 0 -4 0 0 0 Z " fill="#A07430" transform="translate(346,367)"/>
<path d="M0 0 C-0.33 1.32 -0.66 2.64 -1 4 C-7.59598974 5.27352711 -14.19409109 6.53565362 -20.79370117 7.7902832 C-23.03344776 8.21741565 -25.27271862 8.64705121 -27.51147461 9.0793457 C-51.38532101 13.68583179 -51.38532101 13.68583179 -62 14 C-61.67 13.01 -61.34 12.02 -61 11 C-58.98486328 10.26391602 -58.98486328 10.26391602 -56.3203125 9.75390625 C-55.33788574 9.55837158 -54.35545898 9.36283691 -53.34326172 9.16137695 C-51.75022217 8.86493286 -51.75022217 8.86493286 -50.125 8.5625 C-47.921785 8.13066724 -45.718661 7.69836999 -43.515625 7.265625 C-42.41412109 7.05357422 -41.31261719 6.84152344 -40.17773438 6.62304688 C-36.51599324 5.90510255 -32.8715816 5.12154509 -29.22631836 4.32495117 C-9.38181872 0 -9.38181872 0 0 0 Z " fill="#A27530" transform="translate(309,110)"/>
<path d="M0 0 C0 0.99 0 1.98 0 3 C-0.93714844 3.268125 -1.87429688 3.53625 -2.83984375 3.8125 C-9.70564078 5.79679936 -16.54525903 7.83714068 -23.34375 10.04296875 C-24.43437744 10.39681641 -25.52500488 10.75066406 -26.64868164 11.11523438 C-28.79794131 11.81596546 -30.9456446 12.52149326 -33.09155273 13.23242188 C-39.34286571 15.27081762 -45.51820683 16.88455366 -52 18 C-51.83349609 16.13647461 -51.83349609 16.13647461 -51 14 C-48.70947266 12.79907227 -48.70947266 12.79907227 -45.6640625 11.81640625 C-43.98594482 11.26424438 -43.98594482 11.26424438 -42.27392578 10.70092773 C-41.06978027 10.32524658 -39.86563477 9.94956543 -38.625 9.5625 C-37.4066748 9.17070557 -36.18834961 8.77891113 -34.93310547 8.37524414 C-27.70625158 6.07950437 -20.4497888 3.89947069 -13.125 1.9375 C-12.36654785 1.73390869 -11.6080957 1.53031738 -10.82666016 1.32055664 C-7.14865409 0.3831496 -3.79996471 -0.23097825 0 0 Z " fill="#A07430" transform="translate(342,357)"/>
<path d="M0 0 C-0.33 1.32 -0.66 2.64 -1 4 C-1.85005615 4.13575439 -2.7001123 4.27150879 -3.57592773 4.41137695 C-26.31628538 8.03763952 -26.31628538 8.03763952 -49 12 C-49 10.68 -49 9.36 -49 8 C-41.49892419 5.95001655 -33.94616484 4.34055609 -26.3125 2.875 C-24.99536011 2.61928223 -24.99536011 2.61928223 -23.65161133 2.35839844 C-15.76181707 0.86827678 -8.03700227 -0.17100005 0 0 Z " fill="#A37631" transform="translate(312,83)"/>
<path d="M0 0 C0 1.32 0 2.64 0 4 C-1.17691406 4.35191406 -2.35382813 4.70382812 -3.56640625 5.06640625 C-14.21512658 8.25424668 -24.85510364 11.46903296 -35.48266602 14.72680664 C-36.40619873 15.00903076 -37.32973145 15.29125488 -38.28125 15.58203125 C-39.09658203 15.83186768 -39.91191406 16.0817041 -40.75195312 16.33911133 C-42.8243079 16.94834942 -44.90046356 17.49345377 -47 18 C-47 16.68 -47 15.36 -47 14 C-20.60324837 5.07464759 -20.60324837 5.07464759 -10 1.9375 C-9.3201001 1.73423096 -8.6402002 1.53096191 -7.93969727 1.3215332 C-5.17687787 0.52060663 -2.89566386 0 0 0 Z " fill="#A27531" transform="translate(490,330)"/>
<path d="M0 0 C-1.36517312 3.2018501 -2.73810198 4.84562544 -5.5703125 6.84765625 C-6.29468506 7.36561768 -7.01905762 7.8835791 -7.76538086 8.41723633 C-8.54405518 8.96017334 -9.32272949 9.50311035 -10.125 10.0625 C-10.92236572 10.62670654 -11.71973145 11.19091309 -12.54125977 11.7722168 C-14.19821727 12.94153526 -15.85817524 14.10661272 -17.52099609 15.26757812 C-19.90371779 16.93271434 -22.2748912 18.61319675 -24.64453125 20.296875 C-26.07480644 21.30309955 -27.50576448 22.30835441 -28.9375 23.3125 C-29.60475098 23.78631104 -30.27200195 24.26012207 -30.95947266 24.74829102 C-35.65387989 28 -35.65387989 28 -39 28 C-39 27.01 -39 26.02 -39 25 C-37.07632058 23.39796473 -35.19571629 22.01497495 -33.125 20.625 C-31.84960735 19.74313124 -30.57490327 18.86026606 -29.30078125 17.9765625 C-28.61193848 17.50250977 -27.9230957 17.02845703 -27.21337891 16.54003906 C-23.20501892 13.75107648 -19.2634483 10.8694172 -15.3125 8 C-13.78827721 6.89512005 -12.26357019 5.79090766 -10.73828125 4.6875 C-10.08899658 4.21699219 -9.43971191 3.74648437 -8.77075195 3.26171875 C-4.19311146 0 -4.19311146 0 0 0 Z " fill="#9F7638" transform="translate(371,84)"/>
<path d="M0 0 C0 0.99 0 1.98 0 3 C-7.58194069 5.76868621 -15.31132422 7.52656047 -23.18603516 9.21704102 C-25.39234569 9.69122799 -27.59661323 10.1741649 -29.80078125 10.65820312 C-40.57707376 13 -40.57707376 13 -44 13 C-43.67 11.68 -43.34 10.36 -43 9 C-37.52034338 7.7126383 -32.0393805 6.43105101 -26.55712891 5.15478516 C-24.69250088 4.71984583 -22.828239 4.28333365 -20.96435547 3.84521484 C-18.28447773 3.21557921 -15.60333214 2.59162027 -12.921875 1.96875 C-11.67322662 1.67345398 -11.67322662 1.67345398 -10.39935303 1.37219238 C-9.61884583 1.19200562 -8.83833862 1.01181885 -8.03417969 0.82617188 C-7.35023132 0.66628784 -6.66628296 0.50640381 -5.96160889 0.3416748 C-4 0 -4 0 0 0 Z " fill="#A07739" transform="translate(121,376)"/>
<path d="M0 0 C0 0.66 0 1.32 0 2 C-4.1031479 2.96272955 -8.2076955 3.91936062 -12.3125 4.875 C-13.46041016 5.14441406 -14.60832031 5.41382813 -15.79101562 5.69140625 C-35.89055036 10.36041998 -35.89055036 10.36041998 -44 10 C-44 9.01 -44 8.02 -44 7 C-23.07634001 2.12494924 -23.07634001 2.12494924 -13 0.125 C-11.783125 -0.11992187 -10.56625 -0.36484375 -9.3125 -0.6171875 C-5.93983479 -1.00695306 -3.29936245 -0.73430933 0 0 Z " fill="#A27530" transform="translate(448,195)"/>
<path d="M0 0 C0.66 0.33 1.32 0.66 2 1 C1.72285156 2.10214844 1.44570312 3.20429688 1.16015625 4.33984375 C-1.40523645 14.94268237 -2.72405975 25.10036018 -3 36 C-4.32 36 -5.64 36 -7 36 C-7.63653622 23.77850464 -6.7853785 13.36889922 -2 2 C-1.34 1.34 -0.68 0.68 0 0 Z " fill="#9D772F" transform="translate(220,268)"/>
<path d="M0 0 C0.99 0 1.98 0 3 0 C2.508203 2.59612068 1.96135647 5.14512325 1.28125 7.69921875 C-1.18066563 17.11604604 -1.68504275 26.32321007 -2 36 C-3.32 36 -4.64 36 -6 36 C-6.61790456 23.36728454 -5.79355749 12.78743644 -1 1 C-0.67 0.67 -0.34 0.34 0 0 Z " fill="#9D772F" transform="translate(208,266)"/>
<path d="M0 0 C0.66 0 1.32 0 2 0 C1.50919613 5.33482466 -1.35126637 9.31952771 -4.125 13.75 C-4.62128906 14.54970215 -5.11757812 15.3494043 -5.62890625 16.17333984 C-13.54326401 28.78748992 -13.54326401 28.78748992 -17 32 C-17.99 32 -18.98 32 -20 32 C-18.38074074 27.39133903 -15.97156751 23.47874805 -13.375 19.375 C-12.93349609 18.67439453 -12.49199219 17.97378906 -12.03710938 17.25195312 C-4.03644384 4.66961151 -4.03644384 4.66961151 0 0 Z " fill="#9F7536" transform="translate(148,386)"/>
<path d="M0 0 C-0.60268572 3.59149558 -0.92166377 3.93874612 -4.02734375 6.3671875 C-5.32252115 7.21578666 -6.62647347 8.05109801 -7.9375 8.875 C-8.61393555 9.31118652 -9.29037109 9.74737305 -9.98730469 10.19677734 C-11.98361223 11.47754378 -13.99028547 12.74040822 -16 14 C-17.02738281 14.65484375 -18.05476563 15.3096875 -19.11328125 15.984375 C-25.56696429 20 -25.56696429 20 -29 20 C-27.4665056 15.7805092 -24.71505244 14.13266888 -21.0625 11.6875 C-20.19939209 11.10754272 -20.19939209 11.10754272 -19.31884766 10.51586914 C-17.552112 9.33424019 -15.77652104 8.16684794 -14 7 C-12.94425781 6.29359375 -11.88851562 5.5871875 -10.80078125 4.859375 C-3.40307419 0 -3.40307419 0 0 0 Z " fill="#9F7536" transform="translate(131,385)"/>
<path d="M0 0 C0 0.99 0 1.98 0 3 C-7.11676742 5.29101417 -14.25679383 7.40059935 -21.5 9.25 C-22.16966797 9.42499023 -22.83933594 9.59998047 -23.52929688 9.78027344 C-27.09367705 10.67226586 -30.3247692 11.19789704 -34 11 C-33.67 10.01 -33.34 9.02 -33 8 C-30.37911109 7.0107577 -27.88318663 6.21886894 -25.1875 5.5 C-24.42155518 5.28641846 -23.65561035 5.07283691 -22.86645508 4.8527832 C-20.58124356 4.22085592 -18.29168759 3.60796765 -16 3 C-14.7934375 2.67386719 -13.586875 2.34773438 -12.34375 2.01171875 C-8.05303049 0.8912462 -4.45753229 0 0 0 Z " fill="#9E7536" transform="translate(368,114)"/>
<path d="M0 0 C-0.33 1.65 -0.66 3.3 -1 5 C-3.68421327 5.8454215 -6.37156768 6.67647233 -9.0625 7.5 C-10.19075195 7.85771484 -10.19075195 7.85771484 -11.34179688 8.22265625 C-16.07832621 9.65796817 -20.05218166 10.26283232 -25 10 C-24.67 9.01 -24.34 8.02 -24 7 C-21.61055409 5.99595602 -19.34392229 5.18430187 -16.875 4.4375 C-16.22273438 4.22931641 -15.57046875 4.02113281 -14.8984375 3.80664062 C-12.93738914 3.18603107 -10.97084523 2.58870041 -9 2 C-8.34547852 1.80293457 -7.69095703 1.60586914 -7.01660156 1.40283203 C-2.25659631 0 -2.25659631 0 0 0 Z " fill="#A27530" transform="translate(493,310)"/>
<path d="M0 0 C-0.33 0.99 -0.66 1.98 -1 3 C-3.31 3.33 -5.62 3.66 -8 4 C-8.33 3.01 -8.66 2.02 -9 1 C-5.92677456 0.08941469 -3.19902639 -0.08886184 0 0 Z " fill="#A57C3C" transform="translate(217,78)"/>
</svg>
